# Blender 4.0.2
# www.blender.org
o pallet_LOD1
v -0.422508 1.200000 -1.201691
v -1.219693 1.200000 -1.201691
v -1.219693 1.340744 -1.201691
v -1.219693 1.200000 -0.005978
v -0.422508 1.200000 -0.005979
v -0.422508 1.340744 -0.005979
v -0.422508 1.340744 -1.201691
v -1.219693 1.340744 -0.005978
v -0.398593 1.200000 -1.201691
v -0.398592 1.200000 -0.005979
v 0.398592 1.340744 -1.201691
v 0.398592 1.200000 -1.201691
v 0.398593 1.200000 -0.005979
v -0.398593 1.340744 -0.005979
v 0.398593 1.340744 -0.005979
v -0.398593 1.340744 -1.201691
v 1.219693 1.200000 -1.201692
v 1.219693 1.200000 -0.005979
v 0.422508 1.200000 -1.201691
v 0.422508 1.200000 -0.005979
v 0.422508 1.340744 -0.005979
v 0.422508 1.340744 -1.201691
v 1.219693 1.340744 -1.201692
v 1.219693 1.340744 -0.005979
v -1.219693 1.200000 0.005979
v -0.422508 1.340744 1.201691
v -0.422508 1.200000 0.005979
v -1.219693 1.200000 1.201692
v -0.422508 1.200000 1.201691
v -1.219693 1.340744 0.005979
v -0.422508 1.340744 0.005979
v -1.219693 1.340744 1.201692
v 0.398593 1.340744 0.005979
v -0.398592 1.200000 0.005979
v -0.398593 1.340744 0.005979
v -0.398592 1.340744 1.201691
v 0.398593 1.340744 1.201691
v 0.398593 1.200000 0.005979
v -0.398592 1.200000 1.201691
v 0.398593 1.200000 1.201691
v 1.219693 1.200000 0.005978
v 0.422508 1.200000 0.005979
v 1.219693 1.200000 1.201691
v 1.219693 1.340744 0.005978
v 0.422508 1.200000 1.201691
v 0.422508 1.340744 1.201691
v 0.422508 1.340744 0.005979
v 1.219693 1.340744 1.201691
vn -0.0000 -0.0000 -1.0000
vn -1.0000 -0.0000 -0.0000
vn 1.0000 -0.0000 -0.0000
vn -0.0000 -1.0000 -0.0000
vn -0.0000 -0.0000 1.0000
vn -0.0000 1.0000 -0.0000
vt 0.689245 0.526099
vt 0.514641 0.526038
vt 0.514651 0.495212
vt 0.689256 0.495272
vt 0.776544 0.526038
vt 0.514651 0.526038
vt 0.514651 0.495212
vt 0.776544 0.495212
vt 0.454609 0.605395
vt 0.454609 0.637695
vt 0.113128 0.637695
vt 0.113128 0.605395
vt 0.689256 0.495212
vt 0.689256 0.526038
vt 0.454609 0.637695
s 0
f 3/1/1 7/2/1 1/3/1
f 2/4/1 3/1/1 1/3/1
f 8/5/2 3/6/2 2/7/2
f 4/8/2 8/5/2 2/7/2
f 7/7/3 6/8/3 5/5/3
f 1/6/3 7/7/3 5/5/3
f 5/9/4 4/10/4 2/11/4
f 1/12/4 5/9/4 2/11/4
f 6/3/5 8/13/5 4/14/5
f 5/6/5 6/3/5 4/14/5
f 6/12/6 7/9/6 3/15/6
f 8/11/6 6/12/6 3/15/6
f 16/1/1 11/2/1 12/3/1
f 9/4/1 16/1/1 12/3/1
f 14/5/2 16/6/2 9/7/2
f 10/8/2 14/5/2 9/7/2
f 11/7/3 15/8/3 13/5/3
f 12/6/3 11/7/3 13/5/3
f 13/9/4 10/10/4 9/11/4
f 12/12/4 13/9/4 9/11/4
f 15/3/5 14/13/5 10/14/5
f 13/6/5 15/3/5 10/14/5
f 15/12/6 11/9/6 16/15/6
f 14/11/6 15/12/6 16/15/6
f 22/1/1 23/2/1 17/3/1
f 19/4/1 22/1/1 17/3/1
f 21/5/2 22/6/2 19/7/2
f 20/8/2 21/5/2 19/7/2
f 23/7/3 24/8/3 18/5/3
f 17/6/3 23/7/3 18/5/3
f 18/9/4 20/10/4 19/11/4
f 17/12/4 18/9/4 19/11/4
f 24/3/5 21/13/5 20/14/5
f 18/6/5 24/3/5 20/14/5
f 24/12/6 23/9/6 22/15/6
f 21/11/6 24/12/6 22/15/6
f 30/1/1 31/2/1 27/3/1
f 25/4/1 30/1/1 27/3/1
f 32/5/2 30/6/2 25/7/2
f 28/8/2 32/5/2 25/7/2
f 31/7/3 26/8/3 29/5/3
f 27/6/3 31/7/3 29/5/3
f 29/9/4 28/10/4 25/11/4
f 27/12/4 29/9/4 25/11/4
f 26/3/5 32/13/5 28/14/5
f 29/6/5 26/3/5 28/14/5
f 26/12/6 31/9/6 30/15/6
f 32/11/6 26/12/6 30/15/6
f 35/1/1 33/2/1 38/3/1
f 34/4/1 35/1/1 38/3/1
f 36/5/2 35/6/2 34/7/2
f 39/8/2 36/5/2 34/7/2
f 33/7/3 37/8/3 40/5/3
f 38/6/3 33/7/3 40/5/3
f 40/9/4 39/10/4 34/11/4
f 38/12/4 40/9/4 34/11/4
f 37/3/5 36/13/5 39/14/5
f 40/6/5 37/3/5 39/14/5
f 37/12/6 33/9/6 35/15/6
f 36/11/6 37/12/6 35/15/6
f 47/1/1 44/2/1 41/3/1
f 42/4/1 47/1/1 41/3/1
f 46/5/2 47/6/2 42/7/2
f 45/8/2 46/5/2 42/7/2
f 44/7/3 48/8/3 43/5/3
f 41/6/3 44/7/3 43/5/3
f 43/9/4 45/10/4 42/11/4
f 41/12/4 43/9/4 42/11/4
f 48/3/5 46/13/5 45/14/5
f 43/6/5 48/3/5 45/14/5
f 48/12/6 44/9/6 47/15/6
f 46/11/6 48/12/6 47/15/6
