# Blender 4.0.2
# www.blender.org
o straps_end
v 1.237360 2.065214 0.350615
v -1.250614 1.311055 0.250170
v 1.251734 1.311061 0.350392
v 1.226218 1.315476 0.350392
v 0.025772 2.382617 0.250393
v -1.234531 1.860882 0.250393
v -1.224405 1.315487 0.250170
v -1.224405 1.315487 0.350392
v 1.216449 2.074150 0.250393
v 1.226218 1.315475 0.250170
v 0.025838 2.402952 0.350615
v 1.237360 2.065214 0.250393
v -1.234531 1.860882 0.350615
v -1.255747 1.851861 0.350615
v -1.255747 1.851861 0.250393
v 0.025838 2.402952 0.250393
v 0.025772 2.382617 0.350615
v 1.216449 2.074150 0.350615
v 1.251734 1.311061 0.250170
v -1.250614 1.311055 0.350392
v 0.026001 1.314968 0.350392
v 0.026075 1.294633 0.250170
v -1.242916 1.299884 0.350392
v -1.228740 1.295311 0.350392
v -1.242916 1.299884 0.250170
v 1.244476 1.299712 0.350392
v -1.228740 1.295311 0.250170
v 1.244476 1.299711 0.250170
v 1.230662 1.294981 0.350392
v 0.026075 1.294633 0.350392
v 0.026001 1.314968 0.250170
v 1.230662 1.294981 0.250170
v -1.238279 2.295458 0.250393
v -1.080223 2.378623 0.250393
v -1.217351 2.342405 0.250393
v -1.195297 2.360457 0.250393
v -1.157122 2.371916 0.250393
v -1.097085 2.394539 0.250393
v -1.255518 2.311690 0.250393
v -1.173915 2.387760 0.250393
v -1.212138 2.376337 0.250393
v -1.234348 2.358421 0.250393
v -1.255518 2.311690 0.350615
v -1.097085 2.394539 0.350615
v -1.234348 2.358421 0.350615
v -1.212138 2.376337 0.350615
v -1.173915 2.387760 0.350615
v -1.080223 2.378623 0.350615
v -1.238279 2.295458 0.350615
v -1.157122 2.371916 0.350615
v -1.195297 2.360457 0.350615
v -1.217351 2.342405 0.350615
v 1.211325 2.326772 0.250393
v 1.070564 2.393670 0.250393
v 1.193848 2.357450 0.250393
v 1.171260 2.377891 0.250393
v 1.133088 2.388884 0.250393
v 1.070564 2.393671 0.350615
v 1.211325 2.326773 0.350615
v 1.133088 2.388884 0.350615
v 1.171260 2.377891 0.350615
v 1.193848 2.357450 0.350615
v 1.194650 2.310673 0.250393
v 1.053985 2.377642 0.250393
v 1.177290 2.341459 0.250393
v 1.154762 2.361951 0.250393
v 1.116582 2.372931 0.250393
v 1.053985 2.377643 0.350615
v 1.194650 2.310674 0.350615
v 1.116582 2.372932 0.350615
v 1.154762 2.361952 0.350615
v 1.177290 2.341460 0.350615
v 1.255747 1.653080 -0.230040
v -1.250614 1.311055 -0.330485
v 1.251734 1.311061 -0.230263
v 1.226218 1.315476 -0.230263
v 0.025772 2.382617 -0.330262
v -1.227596 2.071877 -0.330262
v -1.224405 1.315487 -0.330485
v -1.224405 1.315487 -0.230263
v 1.234836 1.662016 -0.330262
v 1.226218 1.315475 -0.330485
v 0.025838 2.402952 -0.230040
v 1.255747 1.653080 -0.330262
v -1.227596 2.071877 -0.230040
v -1.248812 2.062856 -0.230040
v -1.248812 2.062856 -0.330262
v 0.025838 2.402952 -0.330262
v 0.025772 2.382617 -0.230040
v 1.234836 1.662016 -0.230040
v 1.251734 1.311061 -0.330485
v -1.250614 1.311055 -0.230263
v 0.026001 1.314968 -0.230263
v 0.026075 1.294633 -0.330485
v -1.242916 1.299884 -0.230263
v -1.228740 1.295311 -0.230263
v -1.242916 1.299884 -0.330485
v 1.244476 1.299712 -0.230263
v -1.228740 1.295311 -0.330485
v 1.244476 1.299711 -0.330485
v 1.230662 1.294981 -0.230263
v 0.026075 1.294633 -0.230263
v 0.026001 1.314968 -0.330485
v 1.230662 1.294981 -0.330485
v -1.217341 2.287124 -0.330262
v -1.014281 2.380356 -0.330262
v -1.197718 2.339648 -0.330262
v -1.171746 2.356655 -0.330262
v -1.130355 2.372937 -0.330262
v -1.031142 2.396272 -0.330262
v -1.234580 2.303356 -0.330262
v -1.147148 2.388781 -0.330262
v -1.188586 2.372534 -0.330262
v -1.214715 2.355664 -0.330262
v -1.234580 2.303356 -0.230040
v -1.031142 2.396272 -0.230040
v -1.214715 2.355664 -0.230040
v -1.188586 2.372534 -0.230040
v -1.147148 2.388781 -0.230040
v -1.014281 2.380356 -0.230040
v -1.217341 2.287124 -0.230040
v -1.130355 2.372937 -0.230040
v -1.171746 2.356655 -0.230040
v -1.197718 2.339648 -0.230040
v 1.236098 2.304861 -0.330262
v 1.020805 2.398001 -0.330262
v 1.218799 2.352998 -0.330262
v 1.193782 2.372947 -0.330262
v 1.150432 2.387141 -0.330262
v 1.020805 2.398001 -0.230040
v 1.236098 2.304862 -0.230040
v 1.150432 2.387142 -0.230040
v 1.193782 2.372948 -0.230040
v 1.218799 2.352999 -0.230040
v 1.219423 2.288762 -0.330262
v 1.004226 2.381973 -0.330262
v 1.202241 2.337007 -0.330262
v 1.177283 2.357008 -0.330262
v 1.133926 2.371189 -0.330262
v 1.004226 2.381974 -0.230040
v 1.219423 2.288763 -0.230040
v 1.133926 2.371190 -0.230040
v 1.177283 2.357009 -0.230040
v 1.202241 2.337008 -0.230040
vn 0.9998 0.0191 -0.0000
vn 0.9983 0.0591 -0.0000
vn -1.0000 -0.0095 -0.0000
vn -1.0000 -0.0045 -0.0000
vn -0.0000 0.0002 -1.0000
vn -0.0001 0.0003 -1.0000
vn -0.0001 0.0002 -1.0000
vn -0.0000 0.0001 -1.0000
vn -0.0000 -0.0002 1.0000
vn -0.0001 -0.0002 1.0000
vn -0.0000 -0.0001 1.0000
vn 0.9999 0.0136 -0.0000
vn 0.9790 -0.2039 -0.0000
vn -0.0000 -0.0000 -1.0000
vn -0.9999 -0.0129 -0.0000
vn -0.9986 -0.0524 -0.0000
vn -0.0000 -0.0000 1.0000
vn 0.9998 0.0186 -0.0000
vn 0.0001 -0.0002 1.0000
vn 0.0001 -0.0003 1.0000
vn 0.0001 0.0002 -1.0000
vn -0.9774 0.2113 -0.0000
vn -0.0477 0.9989 -0.0000
vn 0.0007 1.0000 -0.0000
vn 0.9528 0.3037 -0.0000
vn 0.0453 -0.9990 -0.0000
vn -0.0006 -1.0000 -0.0000
vn -0.0400 -0.9992 -0.0000
vn -0.9545 -0.2981 -0.0000
vn 0.0426 0.9991 -0.0000
vn 0.0004 1.0000 -0.0000
vn -0.0000 1.0000 -0.0000
vn -0.1557 -0.9878 -0.0000
vn -0.0001 -1.0000 -0.0000
vn -0.3070 -0.9517 -0.0000
vn -0.8234 -0.5674 -0.0000
vn 0.1644 -0.9864 -0.0000
vn 0.3240 -0.9461 -0.0000
vn 0.3240 -0.9460 -0.0000
vn 0.8424 -0.5388 -0.0000
vn -0.0004 1.0000 -0.0000
vn -0.7908 0.6121 -0.0000
vn -0.4659 0.8849 -0.0000
vn -0.1881 0.9822 -0.0000
vn 0.7948 -0.6068 -0.0000
vn 0.4695 -0.8829 -0.0000
vn 0.1882 -0.9821 -0.0000
vn 0.1775 0.9841 -0.0000
vn 0.4864 0.8737 -0.0000
vn 0.7797 0.6261 -0.0000
vn -0.1766 -0.9843 -0.0000
vn -0.4874 -0.8732 -0.0000
vn -0.7819 -0.6234 -0.0000
vn 0.9999 -0.0117 -0.0000
vn 1.0000 0.0092 -0.0000
vn -1.0000 0.0024 -0.0000
vn -0.9995 0.0308 -0.0000
vn -0.9995 0.0307 -0.0000
vn -0.0001 -0.0004 1.0000
vn -0.0002 -0.0004 1.0000
vn 0.9998 -0.0217 -0.0000
vn 0.9796 -0.2012 -0.0000
vn -0.9997 0.0249 -0.0000
vn -1.0000 0.0001 -0.0000
vn 1.0000 0.0042 -0.0000
vn 0.0002 0.0004 -1.0000
vn 0.0001 0.0004 -1.0000
vn -0.9778 0.2095 -0.0000
vn -0.0354 0.9994 -0.0000
vn -0.0007 1.0000 -0.0000
vn 0.9825 0.1865 -0.0000
vn 0.0330 -0.9995 -0.0000
vn 0.0008 -1.0000 -0.0000
vn -0.0418 -0.9991 -0.0000
vn -0.9832 -0.1823 -0.0000
vn 0.0443 0.9990 -0.0000
vn -0.7774 0.6290 -0.0000
vn -0.4560 0.8900 -0.0000
vn -0.2173 0.9761 -0.0000
vn 0.7811 -0.6244 -0.0000
vn 0.4593 -0.8883 -0.0000
vn 0.2176 -0.9760 -0.0000
vn 0.1987 0.9801 -0.0000
vn 0.4748 0.8801 -0.0000
vn 0.8131 0.5821 -0.0000
vn -0.1982 -0.9802 -0.0000
vn -0.4758 -0.8796 -0.0000
vn -0.8146 -0.5800 -0.0000
vt 0.686523 0.336670
vt 0.686523 0.494629
vt 0.665527 0.494629
vt 0.665527 0.336670
vt 0.686035 0.336914
vt 0.686035 0.497315
vt 0.664551 0.497315
vt 0.664551 0.336914
vt 0.671875 0.322998
vt 0.671875 0.483398
vt 0.665527 0.486084
vt 0.666504 0.323975
vt 0.673340 0.322754
vt 0.673340 0.480713
vt 0.666992 0.483154
vt 0.667969 0.323486
vt 0.679199 0.286377
vt 0.679199 0.461682
vt 0.658203 0.461682
vt 0.679688 0.275147
vt 0.686035 0.272461
vt 0.678863 0.450451
vt 0.678711 0.339600
vt 0.678711 0.499023
vt 0.657227 0.499023
vt 0.657227 0.339600
vt 0.665527 0.261475
vt 0.665527 0.482415
vt 0.659052 0.481172
vt 0.686035 0.452156
vt 0.678403 0.451657
vt 0.686523 0.331055
vt 0.686523 0.493164
vt 0.665039 0.493164
vt 0.665039 0.331055
vt 0.683594 0.323975
vt 0.683594 0.486084
vt 0.677734 0.483398
vt 0.678223 0.322998
vt 0.685059 0.323486
vt 0.685059 0.483154
vt 0.679199 0.480713
vt 0.679688 0.322754
vt 0.666992 0.272461
vt 0.672852 0.275147
vt 0.666160 0.452156
vt 0.671387 0.482399
vt 0.671387 0.261230
vt 0.677734 0.261230
vt 0.657227 0.276123
vt 0.678711 0.276123
vt 0.657227 0.455818
vt 0.678711 0.471901
vt 0.657715 0.471901
vt 0.678711 0.250732
vt 0.657715 0.277588
vt 0.679199 0.277588
vt 0.657715 0.443583
vt 0.684570 0.272461
vt 0.684570 0.438456
vt 0.677086 0.437714
vt 0.659180 0.261230
vt 0.659180 0.480996
vt 0.672852 0.450451
vt 0.665729 0.450950
vt 0.657227 0.471719
vt 0.657227 0.251953
vt 0.678711 0.251953
vt 0.678711 0.455818
vt 0.657227 0.455818
vt 0.679199 0.443583
vt 0.657715 0.443583
vt 0.671875 0.274902
vt 0.671875 0.434747
vt 0.664391 0.435489
vt 0.677246 0.275189
vt 0.677246 0.497803
vt 0.670898 0.497803
vt 0.686035 0.487305
vt 0.664551 0.487305
vt 0.686035 0.266087
vt 0.686523 0.286377
vt 0.686523 0.446222
vt 0.665527 0.446222
vt 0.686523 0.487305
vt 0.665039 0.487305
vt 0.686523 0.264691
vt 0.665527 0.286377
vt 0.665527 0.446222
vt 0.658691 0.497803
vt 0.658691 0.275189
vt 0.665145 0.276428
vt 0.665527 0.272461
vt 0.664749 0.438456
vt 0.657715 0.471901
vt 0.657715 0.250732
vt 0.658203 0.286377
vt 0.670898 0.276586
vt 0.677352 0.275347
vt 0.665039 0.497803
vt 0.665039 0.276586
vt 0.678711 0.471719
vt 0.678223 0.274902
vt 0.677462 0.434747
vt 0.664551 0.266087
vt 0.657227 0.487305
vt 0.678711 0.487305
vt 0.671387 0.497803
vt 0.677734 0.496582
vt 0.657715 0.487305
vt 0.657227 0.494873
vt 0.657227 0.490967
vt 0.678711 0.494873
vt 0.678711 0.490967
vt 0.657227 0.487060
vt 0.678711 0.487060
vt 0.657715 0.493652
vt 0.657715 0.489746
vt 0.679199 0.493652
vt 0.679199 0.489746
vt 0.657715 0.485840
vt 0.679199 0.485840
vt 0.670410 0.489014
vt 0.666992 0.487060
vt 0.672852 0.482910
vt 0.666016 0.483398
vt 0.678711 0.482910
vt 0.684570 0.487060
vt 0.681152 0.489014
vt 0.686035 0.483398
vt 0.669434 0.486328
vt 0.666016 0.484375
vt 0.671875 0.479980
vt 0.664551 0.480713
vt 0.677246 0.479980
vt 0.683106 0.484375
vt 0.679688 0.486328
vt 0.684570 0.480713
vt 0.664551 0.251953
vt 0.686035 0.251953
vt 0.658691 0.261230
vt 0.665039 0.262451
vt 0.665039 0.250732
vt 0.686523 0.250732
vt 0.665527 0.497803
vt 0.659180 0.496582
vt 0.677246 0.261230
vt 0.670898 0.262451
vt 0.678711 0.467793
vt 0.657227 0.467793
vt 0.657715 0.477804
vt 0.678711 0.477804
vt 0.679199 0.474092
vt 0.658203 0.474092
vt 0.679199 0.494141
vt 0.658203 0.494141
vt 0.657227 0.477678
vt 0.678711 0.477678
vt 0.671259 0.482239
vt 0.677734 0.480996
vt 0.680294 0.487713
vt 0.673848 0.488951
vt 0.675728 0.465697
vt 0.683253 0.466193
vt 0.662998 0.489046
vt 0.656551 0.487808
vt 0.668456 0.465536
vt 0.675479 0.465040
vt 0.686523 0.264691
vt 0.665039 0.264691
vt 0.665039 0.259225
vt 0.686523 0.259225
vt 0.657715 0.460158
vt 0.679199 0.460158
vt 0.682438 0.457361
vt 0.675006 0.456621
vt 0.675286 0.269160
vt 0.668863 0.270394
vt 0.660708 0.269075
vt 0.667132 0.270309
vt 0.666595 0.455736
vt 0.674027 0.454996
vt 0.664551 0.260563
vt 0.686035 0.260562
vt 0.686523 0.491455
vt 0.665527 0.491455
vt 0.665527 0.463930
vt 0.686523 0.463930
s 1
f 19/1/1 12/2/2 1/3/2
f 3/4/1 19/1/1 1/3/2
f 20/5/3 14/6/4 15/7/4
f 2/8/3 20/5/3 15/7/4
f 2/9/5 15/10/6 6/11/7
f 7/12/8 2/9/5 6/11/7
f 3/13/9 1/14/10 18/15/11
f 4/16/11 3/13/9 18/15/11
f 6/17/12 33/18/13 49/19/13
f 6/20/7 15/21/6 33/22/14
f 4/23/15 18/24/16 9/25/16
f 10/26/15 4/23/15 9/25/16
f 11/27/17 44/28/17 48/29/17
f 15/21/6 39/30/14 33/31/14
f 7/32/18 6/33/12 13/34/12
f 8/35/18 7/32/18 13/34/12
f 8/36/9 13/37/19 14/38/20
f 20/39/9 8/36/9 14/38/20
f 10/40/8 9/41/8 12/42/21
f 19/43/5 10/40/8 12/42/21
f 14/44/20 13/45/19 43/46/17
f 38/47/14 16/48/14 5/49/14
f 15/50/4 14/51/4 39/52/22
f 38/53/23 44/54/23 16/55/24
f 1/56/2 12/57/2 59/58/25
f 1/59/10 59/60/17 69/61/17
f 17/62/17 11/27/17 48/63/17
f 13/45/19 49/64/17 43/65/17
f 34/66/26 5/67/27 17/68/27
f 14/51/4 43/69/22 39/70/22
f 12/57/2 53/71/25 59/72/25
f 9/73/8 63/74/14 53/75/14
f 58/76/17 11/77/17 17/78/17
f 17/79/27 5/80/27 68/81/28
f 18/82/16 69/83/29 63/84/29
f 16/85/24 11/86/24 54/87/30
f 9/88/16 18/82/16 63/89/29
f 16/90/14 54/91/14 64/92/14
f 12/93/21 9/73/8 53/94/14
f 44/95/23 11/96/24 16/55/24
f 13/97/12 6/17/12 49/19/13
f 68/98/17 58/99/17 17/78/17
f 5/100/14 16/90/14 64/101/14
f 48/102/26 34/66/26 17/68/27
f 18/103/11 1/59/10 69/104/17
f 5/80/27 64/105/28 68/81/28
f 8/106/31 21/67/32 31/68/32
f 7/107/31 8/106/31 31/68/32
f 24/108/17 30/48/17 21/49/17
f 8/109/9 24/108/17 21/49/17
f 27/110/33 22/96/34 30/55/34
f 24/107/33 27/110/33 30/55/34
f 24/111/33 23/112/35 27/113/33
f 23/112/35 25/114/35 27/113/33
f 23/112/36 20/115/36 25/114/36
f 20/115/36 2/116/36 25/114/36
f 32/117/37 28/118/38 29/119/37
f 28/118/38 26/120/39 29/119/37
f 28/118/40 19/121/40 26/120/40
f 19/121/40 3/122/40 26/120/40
f 27/123/14 25/124/14 7/125/8
f 25/124/14 2/126/5 7/125/8
f 8/127/9 23/128/17 24/129/17
f 8/127/9 20/130/9 23/128/17
f 29/131/17 26/132/17 4/133/11
f 26/132/17 3/134/9 4/133/11
f 10/135/8 28/136/14 32/137/14
f 10/135/8 19/138/5 28/136/14
f 21/80/32 4/139/41 10/140/41
f 31/79/32 21/80/32 10/140/41
f 30/90/17 29/141/17 4/142/11
f 21/100/17 30/90/17 4/142/11
f 22/86/34 32/143/37 29/144/37
f 30/85/34 22/86/34 29/144/37
f 22/27/14 27/145/14 7/146/8
f 31/62/14 22/27/14 7/146/8
f 32/147/14 22/77/14 31/78/14
f 10/148/8 32/147/14 31/78/14
f 39/70/22 43/69/22 45/149/42 42/150/42
f 42/150/42 45/149/42 46/116/43 41/115/43
f 41/107/43 46/110/43 47/151/44 40/152/44
f 40/152/44 47/151/44 44/54/23 38/53/23
f 49/19/13 33/18/13 35/153/45 52/154/45
f 52/154/45 35/153/45 36/155/46 51/156/46
f 51/107/46 36/106/46 37/157/47 50/158/47
f 50/158/47 37/157/47 34/66/26 48/102/26
f 38/159/14 34/160/14 37/161/14 40/162/14
f 40/162/14 37/161/14 36/109/14 41/109/14
f 41/127/14 36/127/14 35/163/14 42/164/14
f 42/164/14 35/163/14 33/31/14 39/30/14
f 48/29/17 44/28/17 47/165/17 50/166/17
f 50/166/17 47/165/17 46/146/17 51/146/17
f 51/125/17 46/125/17 45/167/17 52/168/17
f 52/168/17 45/167/17 43/65/17 49/64/17
f 34/160/14 38/159/14 5/49/14
f 54/169/30 58/170/30 60/171/48 57/172/48
f 57/172/48 60/171/48 61/143/49 56/144/49
f 56/122/49 61/121/49 62/173/50 55/174/50
f 55/174/50 62/173/50 59/72/25 53/71/25
f 69/61/17 59/60/17 62/175/17 72/176/17
f 72/176/17 62/175/17 61/135/17 71/135/17
f 71/148/17 61/148/17 60/177/17 70/178/17
f 70/178/17 60/177/17 58/99/17 68/98/17
f 64/92/14 54/91/14 57/179/14 67/180/14
f 67/180/14 57/179/14 56/142/14 66/142/14
f 66/133/14 56/133/14 55/181/14 65/182/14
f 65/182/14 55/181/14 53/75/14 63/74/14
f 68/81/28 64/105/28 67/183/51 70/184/51
f 70/184/51 67/183/51 66/139/52 71/140/52
f 71/185/52 66/186/52 65/187/53 72/188/53
f 72/188/53 65/187/53 63/84/29 69/83/29
f 11/86/24 58/170/30 54/169/30
f 91/1/54 84/2/55 73/3/55
f 75/4/54 91/1/54 73/3/55
f 92/5/56 86/6/57 87/7/58
f 74/8/56 92/5/56 87/7/58
f 74/9/5 87/10/7 78/11/8
f 79/12/8 74/9/5 78/11/8
f 75/13/59 73/14/60 90/15/10
f 76/16/9 75/13/59 90/15/10
f 78/17/61 105/18/62 121/19/62
f 78/20/8 87/21/7 105/22/14
f 76/23/63 90/24/64 81/25/64
f 82/26/63 76/23/63 81/25/64
f 83/27/17 116/28/17 120/29/17
f 87/21/7 111/30/14 105/31/14
f 79/32/65 78/33/61 85/34/61
f 80/35/65 79/32/65 85/34/61
f 80/36/11 85/37/11 86/38/19
f 92/39/9 80/36/11 86/38/19
f 82/40/5 81/41/21 84/42/66
f 91/43/67 82/40/5 84/42/66
f 86/44/19 85/45/11 115/46/17
f 110/47/14 88/48/14 77/49/14
f 87/50/58 86/51/57 111/52/68
f 110/53/69 116/54/69 88/55/70
f 73/56/55 84/57/55 131/58/71
f 73/59/60 131/60/17 141/61/17
f 89/62/17 83/27/17 120/63/17
f 85/45/11 121/64/17 115/65/17
f 106/66/72 77/67/73 89/68/73
f 86/51/57 115/69/68 111/70/68
f 84/57/55 125/71/71 131/72/71
f 81/73/21 135/74/14 125/75/14
f 130/76/17 83/77/17 89/78/17
f 89/79/73 77/80/73 140/81/74
f 90/82/64 141/83/75 135/84/75
f 88/85/70 83/86/70 126/87/76
f 81/88/64 90/82/64 135/89/75
f 88/90/14 126/91/14 136/92/14
f 84/93/66 81/73/21 125/94/14
f 116/95/69 83/96/70 88/55/70
f 85/97/61 78/17/61 121/19/62
f 140/98/17 130/99/17 89/78/17
f 77/100/14 88/90/14 136/101/14
f 120/102/72 106/66/72 89/68/73
f 90/103/10 73/59/60 141/104/17
f 77/80/73 136/105/74 140/81/74
f 80/106/31 93/67/32 103/68/32
f 79/107/31 80/106/31 103/68/32
f 96/108/17 102/48/17 93/49/17
f 80/109/11 96/108/17 93/49/17
f 99/110/33 94/96/34 102/55/34
f 96/107/33 99/110/33 102/55/34
f 96/111/33 95/112/35 99/113/33
f 95/112/35 97/114/35 99/113/33
f 95/112/36 92/115/36 97/114/36
f 92/115/36 74/116/36 97/114/36
f 104/117/37 100/118/38 101/119/37
f 100/118/38 98/120/39 101/119/37
f 100/118/40 91/121/40 98/120/40
f 91/121/40 75/122/40 98/120/40
f 99/123/14 97/124/14 79/125/8
f 97/124/14 74/126/5 79/125/8
f 80/127/11 95/128/17 96/129/17
f 80/127/11 92/130/9 95/128/17
f 101/131/17 98/132/17 76/133/9
f 98/132/17 75/134/59 76/133/9
f 82/135/5 100/136/14 104/137/14
f 82/135/5 91/138/67 100/136/14
f 93/80/32 76/139/41 82/140/41
f 103/79/32 93/80/32 82/140/41
f 102/90/17 101/141/17 76/142/9
f 93/100/17 102/90/17 76/142/9
f 94/86/34 104/143/37 101/144/37
f 102/85/34 94/86/34 101/144/37
f 94/27/14 99/145/14 79/146/8
f 103/62/14 94/27/14 79/146/8
f 104/147/14 94/77/14 103/78/14
f 82/148/5 104/147/14 103/78/14
f 111/70/68 115/69/68 117/149/77 114/150/77
f 114/150/77 117/149/77 118/116/78 113/115/78
f 113/107/78 118/110/78 119/151/79 112/152/79
f 112/152/79 119/151/79 116/54/69 110/53/69
f 121/19/62 105/18/62 107/153/80 124/154/80
f 124/154/80 107/153/80 108/155/81 123/156/81
f 123/107/81 108/106/81 109/157/82 122/158/82
f 122/158/82 109/157/82 106/66/72 120/102/72
f 110/159/14 106/160/14 109/161/14 112/162/14
f 112/162/14 109/161/14 108/109/14 113/109/14
f 113/127/14 108/127/14 107/163/14 114/164/14
f 114/164/14 107/163/14 105/31/14 111/30/14
f 120/29/17 116/28/17 119/165/17 122/166/17
f 122/166/17 119/165/17 118/146/17 123/146/17
f 123/125/17 118/125/17 117/167/17 124/168/17
f 124/168/17 117/167/17 115/65/17 121/64/17
f 106/160/14 110/159/14 77/49/14
f 126/169/76 130/170/76 132/171/83 129/172/83
f 129/172/83 132/171/83 133/143/84 128/144/84
f 128/122/84 133/121/84 134/173/85 127/174/85
f 127/174/85 134/173/85 131/72/71 125/71/71
f 141/61/17 131/60/17 134/175/17 144/176/17
f 144/176/17 134/175/17 133/135/17 143/135/17
f 143/148/17 133/148/17 132/177/17 142/178/17
f 142/178/17 132/177/17 130/99/17 140/98/17
f 136/92/14 126/91/14 129/179/14 139/180/14
f 139/180/14 129/179/14 128/142/14 138/142/14
f 138/133/14 128/133/14 127/181/14 137/182/14
f 137/182/14 127/181/14 125/75/14 135/74/14
f 140/81/74 136/105/74 139/183/86 142/184/86
f 142/184/86 139/183/86 138/139/87 143/140/87
f 143/185/87 138/186/87 137/187/88 144/188/88
f 144/188/88 137/187/88 135/84/75 141/83/75
f 83/86/70 130/170/76 126/169/76
