# Blender 4.0.2
# www.blender.org
o br_tank_LOD2.001
v -0.335776 2.371341 -0.349615
v 0.335776 2.371341 0.349617
v -0.335776 2.377505 0.349617
v 0.335776 2.377505 -0.349615
v 0.308895 2.457821 -0.443426
v 0.398000 2.418040 -0.432392
v 0.397534 2.463290 -0.443426
v 0.404380 2.418040 -0.443426
v 0.394766 2.457816 -0.432392
v 0.305663 2.418040 -0.443426
v 0.404052 2.463985 -0.432392
v 0.407570 2.418040 -0.432392
v 0.305855 2.463216 -0.432392
v 0.298858 2.418040 -0.432392
v 0.295456 2.418040 -0.443426
v 0.298970 2.463799 -0.443426
v -0.000001 0.146016 1.997811
v -0.536437 0.322748 -1.973985
v -0.816748 0.977099 1.989366
v 0.233245 0.181773 1.995873
v 0.656843 0.435555 -2.005281
v 0.435870 1.644842 2.007383
v -0.117122 1.766886 2.015998
v 0.786574 1.180661 2.032582
v 0.656529 0.442387 2.021843
v -0.676147 1.386002 2.054984
v 0.164682 0.178126 1.993784
v -0.164671 0.178183 1.993737
v 0.238818 0.601035 2.179342
v 0.001656 1.163370 2.217312
v -0.659731 0.452856 2.031271
v -0.822549 0.903576 -2.024282
v -0.008973 0.127132 -2.015014
v -0.622840 1.459059 -2.052189
v -0.205941 1.746481 -1.986218
v 0.418351 1.664433 -2.009438
v 0.803434 1.109242 -2.033352
v 0.158543 1.551908 -2.139541
v -0.549296 0.656953 -2.139669
v 0.108129 0.722649 -2.216908
v -0.237534 0.602891 2.173335
v -0.235144 0.181025 1.995457
v -0.128061 1.736695 -0.479675
v -0.485363 1.576533 -0.099224
v -0.368714 2.398983 0.400530
v -0.458272 1.611953 0.236943
v -0.373058 2.399024 -0.405510
v 0.331223 2.398999 -0.401792
v 0.156660 1.729441 -0.470323
v 0.485362 1.576533 -0.099224
v 0.458934 2.398983 0.317998
v 0.458272 1.611953 0.236943
v -0.000000 1.753843 0.483632
vn 0.0092 0.9999 0.0088
vn -0.0092 0.9999 -0.0088
vn -0.8584 -0.1299 -0.4963
vn -0.7518 -0.4675 -0.4649
vn -0.8599 -0.4195 -0.2908
vn -0.9572 -0.0778 -0.2787
vn -0.8684 -0.4215 -0.2611
vn -0.3638 -0.8443 -0.3935
vn -0.3639 -0.8423 -0.3976
vn 0.4652 -0.7930 -0.3934
vn 0.3649 -0.8445 0.3920
vn -0.4642 -0.7963 0.3879
vn 0.3648 -0.8465 0.3878
vn 0.8627 -0.4206 0.2809
vn 0.8538 -0.4186 0.3094
vn 0.9509 -0.0772 0.2998
vn 0.8439 -0.1307 0.5204
vn 0.7372 -0.4677 0.4876
vn 0.9581 0.0734 -0.2770
vn 0.8687 0.4172 -0.2670
vn 0.7462 0.4666 -0.4748
vn 0.8503 0.1286 -0.5104
vn 0.7469 0.4667 -0.4736
vn 0.3828 0.9025 -0.1975
vn 0.3825 0.9024 -0.1983
vn -0.4221 0.9049 -0.0545
vn -0.3816 0.9032 0.1965
vn 0.4205 0.9061 0.0466
vn -0.3820 0.9032 0.1956
vn -0.7366 0.4671 0.4891
vn -0.7361 0.4670 0.4900
vn -0.8382 0.1298 0.5298
vn -0.9530 0.0732 0.2939
vn -0.8642 0.4162 0.2828
vn -0.0000 -0.0000 1.0000
vn -0.0000 -0.0000 -1.0000
vn 0.0023 -0.9995 0.0327
vn -0.3556 -0.8939 0.2729
vn 0.0236 -0.8547 -0.5186
vn -0.6738 -0.4975 0.5463
vn -0.5853 -0.6938 -0.4196
vn -0.8665 -0.0373 -0.4979
vn -0.8684 0.0054 0.4958
vn -0.6620 0.4686 0.5850
vn -0.6333 0.5040 -0.5873
vn -0.1466 0.8401 0.5223
vn -0.2179 0.8711 -0.4401
vn 0.3533 -0.8952 0.2716
vn 0.7061 -0.4890 0.5121
vn 0.6752 -0.5388 -0.5038
vn 0.8113 0.2062 0.5470
vn 0.8235 0.1555 -0.5457
vn 0.4600 0.7169 0.5239
vn 0.4757 0.7492 -0.4609
vn -0.0476 0.3608 0.9314
vn 0.0354 0.3020 0.9527
vn 0.1861 -0.1277 0.9742
vn 0.0072 0.1281 0.9917
vn -0.1862 -0.1209 0.9750
vn -0.3468 -0.2045 -0.9154
vn 0.0731 0.3694 -0.9264
vn 0.0680 -0.1111 -0.9915
vn -0.3087 -0.0077 -0.9511
vn -0.9711 0.0211 -0.2376
vn -0.6974 0.0776 -0.7125
vn -0.6705 0.1179 0.7325
vn -0.9032 0.0136 0.4290
vn 0.0205 -0.0253 0.9995
vn 0.6392 0.0796 -0.7649
vn 0.3831 0.0036 -0.9237
vn 0.9639 -0.0060 -0.2663
vn 0.8000 0.1027 0.5911
vn 0.8789 -0.0496 0.4745
vt 0.656250 0.686035
vt 0.658081 0.779297
vt 0.560059 0.779297
vt 0.559692 0.687500
vt 0.040863 0.468994
vt 0.040863 0.470215
vt 0.036506 0.468994
vt 0.036250 0.470215
vt 0.026434 0.468994
vt 0.026188 0.470215
vt 0.021805 0.468994
vt 0.021805 0.470215
vt 0.342773 0.470215
vt 0.342773 0.468669
vt 0.337514 0.470215
vt 0.337219 0.468588
vt 0.325475 0.470733
vt 0.325218 0.468994
vt 0.319824 0.470622
vt 0.319824 0.468994
vt 0.337305 0.471435
vt 0.325372 0.468018
vt 0.342773 0.471435
vt 0.319824 0.467773
vt 0.731934 0.002020
vt 0.731936 0.037990
vt 0.002043 0.021553
vt 0.731934 0.133070
vt 0.002001 0.104642
vt 0.002001 0.202936
vt 0.731934 0.227266
vt 0.731934 0.306130
vt 0.002001 0.307216
vt 0.731934 0.402713
vt 0.002001 0.394207
vt 0.001979 0.037910
vt 0.001980 0.002020
vt 0.731873 0.016140
vt 0.001980 0.122158
vt 0.731934 0.120336
vt 0.001980 0.257997
vt 0.731934 0.245605
vt 0.001980 0.348370
vt 0.731934 0.356313
vt 0.001980 0.417319
vt 0.731934 0.428955
vt 0.405622 0.452440
vt 0.418219 0.450617
vt 0.446533 0.447483
vt 0.474603 0.450615
vt 0.487203 0.452317
vt 0.340924 0.504519
vt 0.407761 0.526815
vt 0.323020 0.626732
vt 0.442173 0.615813
vt 0.375629 0.704081
vt 0.465547 0.715610
vt 0.551634 0.653492
vt 0.485066 0.526994
vt 0.551670 0.503273
vt 0.587003 0.588015
vt 0.226678 0.535363
vt 0.150694 0.451732
vt 0.240002 0.476018
vt 0.282005 0.576092
vt 0.021779 0.608928
vt 0.131437 0.673762
vt 0.079742 0.700578
vt 0.132786 0.545935
vt 0.184391 0.717099
vt 0.249817 0.666063
vt 0.041856 0.501281
vt 0.077425 0.460543
vt 0.137239 0.460543
vt 0.104363 0.587812
vt 0.191327 0.587812
vt 0.172695 0.460543
vt 0.219053 0.460543
vt 0.194042 0.587812
vt 0.214461 0.460528
vt 0.230722 0.587812
vt 0.230711 0.460528
vt 0.157892 0.460528
vt 0.115175 0.587812
vt 0.122460 0.460528
vt 0.070556 0.460528
vt 0.064409 0.587812
s 0
f 3/1/1 2/2/1 4/3/1
f 1/4/2 3/1/2 4/3/2
f 8/5/3 6/6/3 7/7/4
f 7/7/5 6/6/6 9/8/7
f 7/7/8 9/8/9 5/9/10
f 5/9/11 9/8/12 13/10/13
f 5/9/14 13/10/15 10/11/16
f 10/11/17 13/10/18 14/12/17
f 12/13/19 8/14/19 11/15/20
f 11/15/21 8/14/22 7/16/23
f 11/15/24 7/16/25 13/17/26
f 13/17/27 7/16/28 16/18/29
f 13/17/30 16/18/31 14/19/32
f 14/19/33 16/18/34 15/20/33
f 9/21/35 11/15/35 13/17/35
f 16/18/36 7/16/36 5/22/36
f 9/21/35 12/13/35 11/15/35
f 6/23/35 12/13/35 9/21/35
f 16/18/36 10/24/36 15/20/36
f 5/22/36 10/24/36 16/18/36
s 1
f 17/25/37 42/26/38 33/27/39
f 42/26/38 31/28/40 33/27/39
f 31/28/40 18/29/41 33/27/39
f 31/28/40 32/30/42 18/29/41
f 31/28/40 19/31/43 32/30/42
f 19/31/43 26/32/44 32/30/42
f 26/32/44 34/33/45 32/30/42
f 26/32/44 23/34/46 34/33/45
f 23/34/46 35/35/47 34/33/45
f 20/36/48 17/37/37 33/38/39
f 25/39/49 20/36/48 33/38/39
f 21/40/50 25/39/49 33/38/39
f 24/41/51 25/39/49 21/40/50
f 37/42/52 24/41/51 21/40/50
f 22/43/53 24/41/51 37/42/52
f 36/44/54 22/43/53 37/42/52
f 23/45/46 22/43/53 36/44/54
f 35/46/47 23/45/46 36/44/54
f 20/47/48 27/48/55 17/49/37
f 17/49/37 28/50/56 42/51/38
f 20/47/48 25/52/49 29/53/57
f 29/53/57 25/52/49 24/54/51
f 30/55/58 22/56/53 23/57/46
f 30/55/58 24/54/51 22/56/53
f 30/55/58 23/57/46 26/58/44
f 30/55/58 29/53/57 24/54/51
f 30/55/58 41/59/59 29/53/57
f 26/58/44 41/59/59 30/55/58
f 26/58/44 31/60/40 41/59/59
f 26/58/44 19/61/43 31/60/40
f 39/62/60 33/63/39 18/64/41
f 32/65/42 39/62/60 18/64/41
f 37/66/52 38/67/61 36/68/54
f 37/66/52 40/69/62 38/67/61
f 36/68/54 38/67/61 35/70/47
f 38/67/61 34/71/45 35/70/47
f 34/71/45 39/62/60 32/65/42
f 39/62/60 40/69/62 33/63/39
f 33/63/39 40/69/62 21/72/50
f 21/72/50 40/69/62 37/66/52
f 34/71/45 40/69/62 39/62/60
f 38/67/61 40/69/62 34/71/45
f 43/73/63 44/74/64 47/75/65
f 44/74/64 45/76/66 47/75/65
f 44/74/64 46/77/67 45/76/66
f 46/77/67 53/78/68 45/76/66
f 48/79/69 49/80/70 47/81/65
f 49/80/70 43/82/63 47/81/65
f 50/83/71 49/80/70 48/79/69
f 51/84/72 50/83/71 48/79/69
f 52/85/73 50/83/71 51/84/72
f 53/86/68 52/85/73 51/84/72
f 45/87/66 53/86/68 51/84/72
f 41/59/59 31/60/40 42/51/38
