# Blender 4.0.2
# www.blender.org
o br_tank_LOD3
v -1.260000 0.230037 3.269963
v -1.260000 0.230037 -3.269963
v -1.260000 2.314587 -3.269963
v -1.260000 2.314587 3.269963
v 1.260000 2.544624 -3.500000
v 1.260000 2.544624 3.500000
v 0.596100 2.544624 3.500000
v 0.596100 2.544624 -3.500000
v 1.260000 0.230037 -3.269963
v 1.260000 0.230037 3.269963
v 1.260000 2.314587 3.269963
v 1.260000 2.314587 -3.269963
v -1.260000 2.544624 3.500000
v -0.596100 2.544624 3.500000
v -1.260000 0.000000 3.500000
v 1.260000 0.000000 3.500000
v 0.596100 2.544624 3.500000
v 1.260000 2.544624 3.500000
v -1.260000 0.230037 3.269963
v -1.260000 0.000000 3.500000
v -1.260000 -0.000000 -3.500000
v -1.260000 0.230037 -3.269963
v -1.260000 2.314587 3.269963
v -1.260000 2.544624 3.500000
v -1.260000 0.000000 3.500000
v -1.260000 0.230037 3.269963
v -1.260000 0.230037 -3.269963
v -1.260000 -0.000000 -3.500000
v -1.260000 2.544624 -3.500000
v -1.260000 2.314587 -3.269963
v 1.260000 2.314587 -3.269963
v 1.260000 2.544624 -3.500000
v 1.260000 -0.000000 -3.500000
v 1.260000 0.230037 -3.269963
v 1.260000 0.230037 -3.269963
v 1.260000 -0.000000 -3.500000
v 1.260000 0.000000 3.500000
v 1.260000 0.230037 3.269963
v 1.260000 0.230037 3.269963
v 1.260000 0.000000 3.500000
v 1.260000 2.544624 3.500000
v 1.260000 2.314587 3.269963
v 1.260000 2.314587 3.269963
v 1.260000 2.544624 3.500000
v 1.260000 2.544624 -3.500000
v 1.260000 2.314587 -3.269963
v -1.260000 0.000000 3.500000
v 1.260000 0.000000 3.500000
v 1.260000 -0.000000 -3.500000
v -1.260000 -0.000000 -3.500000
v -0.596100 2.544624 -3.500000
v -0.596100 2.544624 3.500000
v -1.260000 2.544624 3.500000
v -1.260000 2.544624 -3.500000
v -1.260000 -0.000000 -3.500000
v -0.596100 2.544624 -3.500000
v -1.260000 2.544624 -3.500000
v 0.596100 2.544624 -3.500000
v 1.260000 -0.000000 -3.500000
v 1.260000 2.544624 -3.500000
v -1.260000 2.314587 -3.269963
v -1.260000 2.544624 -3.500000
v -1.260000 2.544624 3.500000
v -1.260000 2.314587 3.269963
v -0.596100 2.544624 -3.500000
v 0.596100 2.544624 -3.500000
v 0.596100 2.544624 3.500000
v -0.596100 2.544624 3.500000
vn -1.0000 -0.0000 -0.0000
vn -0.0000 1.0000 -0.0000
vn 1.0000 -0.0000 -0.0000
vn -0.0000 -0.0000 1.0000
vn -0.0000 -1.0000 -0.0000
vn -0.0000 -0.0000 -1.0000
vt 0.001340 0.373001
vt 0.001340 0.069975
vt 0.731410 0.069975
vt 0.731410 0.373001
vt 0.809494 0.783234
vt 0.739378 0.783234
vt 0.739378 0.043953
vt 0.809494 0.043953
vt 0.001340 0.373001
vt 0.001340 0.069975
vt 0.731410 0.069975
vt 0.731410 0.373001
vt -0.010262 0.439995
vt 0.070786 0.745196
vt -0.010262 0.745196
vt 0.297377 0.439995
vt 0.216328 0.745196
vt 0.297377 0.745196
vt 0.024334 0.814789
vt 0.394043 0.814789
vt 0.381893 0.826938
vt 0.036484 0.826938
vt 0.150374 0.814789
vt 0.284770 0.814789
vt 0.272621 0.826938
vt 0.162524 0.826938
vt 0.284770 0.826938
vt 0.150375 0.826938
vt 0.162524 0.814789
vt 0.272621 0.814789
vt 0.150375 0.814789
vt 0.284770 0.814789
vt 0.272621 0.826938
vt 0.162524 0.826938
vt 0.024334 0.814789
vt 0.394043 0.814789
vt 0.381894 0.826938
vt 0.036484 0.826938
vt 0.284770 0.826938
vt 0.162524 0.814789
vt 0.272621 0.814789
vt 0.394043 0.826938
vt 0.024334 0.826938
vt 0.036484 0.814789
vt 0.381894 0.814789
vt 0.730856 0.431996
vt 0.002102 0.431996
vt 0.002102 0.006323
vt 0.730856 0.006323
vt 0.891580 0.783234
vt 0.821464 0.783234
vt 0.821464 0.043953
vt 0.891580 0.043953
vt 0.297406 0.745196
vt 0.216350 0.745196
vt 0.297406 0.439965
vt 0.070794 0.745196
vt -0.010262 0.439965
vt 0.394043 0.826938
vt 0.024334 0.826938
vt 0.036484 0.814789
vt 0.381893 0.814789
vt 0.061972 0.157114
vt 0.692105 0.157114
vt 0.692105 0.264434
vt 0.061972 0.264434
s 0
f 3/1/1 2/2/1 1/3/1
f 4/4/1 3/1/1 1/3/1
f 7/5/2 6/6/2 5/7/2
f 8/8/2 7/5/2 5/7/2
f 11/9/3 10/10/3 9/11/3
f 12/12/3 11/9/3 9/11/3
f 15/13/4 14/14/4 13/15/4
f 16/16/4 14/14/4 15/13/4
f 17/17/4 14/14/4 16/16/4
f 18/18/4 17/17/4 16/16/4
f 21/19/1 20/20/1 19/21/1
f 22/22/1 21/19/1 19/21/1
f 25/23/1 24/24/1 23/25/1
f 26/26/1 25/23/1 23/25/1
f 29/27/1 28/28/1 27/29/1
f 30/30/1 29/27/1 27/29/1
f 33/31/3 32/32/3 31/33/3
f 34/34/3 33/31/3 31/33/3
f 37/35/3 36/36/3 35/37/3
f 38/38/3 37/35/3 35/37/3
f 41/39/3 40/28/3 39/40/3
f 42/41/3 41/39/3 39/40/3
f 45/42/3 44/43/3 43/44/3
f 46/45/3 45/42/3 43/44/3
f 49/46/5 48/47/5 47/48/5
f 50/49/5 49/46/5 47/48/5
f 53/50/2 52/51/2 51/52/2
f 54/53/2 53/50/2 51/52/2
f 57/54/6 56/55/6 55/56/6
f 56/55/6 58/57/6 55/56/6
f 55/56/6 58/57/6 59/58/6
f 59/58/6 58/57/6 60/15/6
f 63/59/1 62/60/1 61/61/1
f 64/62/1 63/59/1 61/61/1
f 67/63/2 66/64/2 65/65/2
f 68/66/2 67/63/2 65/65/2
