# Blender 4.0.2
# www.blender.org
o br_tank_LOD1.001
v -0.512961 2.377505 -0.531210
v 0.512961 2.377505 0.531212
v 0.330461 2.363123 -0.344167
v -0.512961 2.386135 0.531212
v 0.512961 2.386135 -0.531210
v 0.330461 2.363123 0.344169
v -0.330461 2.363123 0.344169
v -0.330461 2.363123 -0.344167
v -0.238052 0.185740 1.990329
v -0.000001 0.146016 1.997811
v -0.644895 0.448924 1.933151
v -0.622411 0.423784 -1.972284
v -0.816155 1.028740 -1.964143
v -0.816913 1.020214 1.965279
v 0.238047 0.185764 1.990317
v 0.498978 0.301814 -1.964144
v 0.753977 0.630997 -1.965573
v 0.775822 1.168921 1.996894
v 0.699825 1.363063 1.994839
v 0.527286 1.573791 1.972222
v -0.002966 1.771280 1.961780
v 0.810481 0.946919 1.988904
v 0.750669 0.623251 1.966123
v 0.296577 1.711271 1.972204
v -0.326226 1.692744 1.990933
v -0.549324 1.546635 1.990950
v -0.716220 1.338166 1.968139
v -0.705301 1.131599 2.069109
v 0.021893 1.658342 2.080832
v 0.395992 1.530652 2.077701
v 0.620946 0.473300 2.016741
v 0.491640 0.296299 1.963390
v 0.164682 0.178126 1.993784
v -0.164671 0.178183 1.993737
v 0.236667 0.304575 2.086442
v 0.447242 0.415545 2.083880
v 0.367114 0.757193 2.175427
v 0.665930 0.750045 2.081818
v 0.545380 1.172844 2.130937
v -0.036209 1.349742 2.180793
v -0.432490 1.400087 2.114723
v -0.436197 1.051175 2.165797
v 0.067414 0.996361 2.217648
v -0.460373 0.454068 2.094935
v -0.615430 0.778305 2.110774
v -0.468245 0.285607 1.976481
v -0.755739 0.654829 1.994680
v -0.790224 0.867782 2.006543
v -0.759898 0.654324 -1.972215
v -0.790224 0.867782 -2.006543
v -0.417098 0.250064 -1.972348
v -0.129508 0.141396 -1.960987
v 0.202100 0.162776 -1.968022
v 0.620946 0.473300 -2.016741
v -0.170427 0.243297 -2.065851
v 0.158413 0.265873 -2.077734
v 0.451710 0.416202 -2.082270
v -0.535405 0.486857 -2.081004
v -0.712894 1.344253 -1.968049
v -0.542854 1.552542 -1.990936
v -0.318181 1.696234 -1.990919
v -0.064176 1.762346 -1.968678
v 0.259075 1.728672 -1.962484
v 0.523160 1.576781 -1.972292
v 0.615550 1.435753 -2.016649
v 0.752049 1.275571 -1.964067
v 0.810483 0.955482 -1.988903
v 0.646495 1.151281 -2.095174
v 0.665930 0.750044 -2.081818
v 0.395992 1.530652 -2.077701
v 0.219694 1.321350 -2.176721
v 0.321866 0.697060 -2.179626
v 0.021893 1.658341 -2.080833
v -0.372415 1.368426 -2.141765
v -0.638972 1.246322 -2.077531
v -0.706767 0.970068 -2.077399
v -0.424924 0.855136 -2.176325
v -0.073845 0.508536 -2.167053
v -0.000451 0.945964 -2.214799
v 0.237312 0.602931 2.169569
v -0.237534 0.602891 2.173335
v -0.236744 0.287847 2.077358
v -0.088641 1.739386 -0.487953
v -0.242555 1.705045 -0.432991
v -0.457972 2.398983 -0.232733
v -0.451967 1.609365 -0.225574
v -0.493903 1.574898 -0.000234
v -0.459642 2.398983 0.215505
v -0.466464 1.597738 0.169003
v -0.399366 1.641872 0.308845
v -0.164269 2.398983 0.478500
v -0.221751 1.711220 0.443891
v -0.080615 1.739986 0.491584
v -0.121001 2.398986 -0.489307
v 0.173778 2.398990 -0.467363
v 0.103438 1.736684 -0.483675
v 0.242554 1.705045 -0.432991
v 0.403863 2.398983 -0.299288
v 0.451967 1.609365 -0.225574
v 0.504711 2.398983 0.054582
v 0.493902 1.574898 -0.000234
v 0.466464 1.597738 0.169002
v 0.399366 1.641872 0.308844
v 0.269757 2.398983 0.437188
v 0.221750 1.711220 0.443891
v 0.081393 1.739909 0.487764
vn 0.0084 0.9999 0.0081
vn -0.0084 0.9999 -0.0081
vn 0.0084 -0.9934 -0.1141
vn -0.0000 -0.9971 -0.0767
vn -0.0868 -0.9962 0.0081
vn -0.1251 -0.9921 -0.0000
vn -0.0084 -0.9934 0.1141
vn -0.0000 -0.9971 0.0767
vn 0.0868 -0.9962 -0.0081
vn 0.1251 -0.9921 -0.0000
vn 0.0034 -0.9998 0.0190
vn -0.3112 -0.9175 0.2476
vn -0.1223 -0.9318 -0.3418
vn -0.5243 -0.7522 0.3992
vn -0.4658 -0.7900 -0.3986
vn -0.7568 -0.5977 0.2648
vn -0.7112 -0.6004 -0.3656
vn -0.8291 -0.3257 0.4545
vn -0.8568 -0.3201 -0.4043
vn -0.9446 0.0854 0.3169
vn -0.9330 0.1093 -0.3429
vn -0.8126 0.4438 0.3777
vn -0.8209 0.4414 -0.3624
vn -0.6043 0.6512 0.4591
vn -0.5870 0.6606 -0.4680
vn -0.3482 0.8096 0.4726
vn -0.3505 0.8054 -0.4780
vn -0.0157 0.9392 0.3429
vn -0.0687 0.9320 -0.3558
vn 0.2314 -0.8986 -0.3727
vn 0.3176 -0.9138 0.2531
vn 0.5588 -0.7557 0.3414
vn 0.5612 -0.7505 -0.3490
vn 0.8586 -0.3752 0.3493
vn 0.8625 -0.3669 -0.3485
vn 0.8878 -0.0067 0.4602
vn 0.8984 0.0052 -0.4391
vn 0.8472 0.2159 0.4854
vn 0.8606 0.3665 -0.3535
vn 0.7549 0.4551 0.4722
vn 0.6009 0.7025 0.3812
vn 0.5958 0.7171 -0.3616
vn 0.3257 0.8557 0.4021
vn 0.2891 0.8792 -0.3787
vn -0.5638 0.1650 0.8093
vn -0.8527 -0.1106 0.5106
vn 0.0146 0.5349 0.8448
vn 0.2812 0.4174 0.8641
vn 0.6526 -0.4969 0.5721
vn 0.0710 -0.2427 0.9675
vn -0.0686 -0.2283 0.9712
vn 0.2792 -0.4766 0.8336
vn 0.3131 -0.3971 0.8627
vn 0.1973 -0.0954 0.9757
vn 0.4939 -0.1348 0.8590
vn 0.3308 0.1347 0.9341
vn -0.0127 0.2074 0.9782
vn -0.2761 0.2995 0.9133
vn -0.2095 0.0488 0.9766
vn 0.0293 0.0211 0.9993
vn 0.1562 -0.1868 0.9699
vn -0.1325 -0.1341 0.9821
vn -0.3888 -0.1150 0.9141
vn -0.3586 -0.3598 0.8614
vn -0.2684 -0.5006 0.8230
vn -0.8464 -0.1339 -0.5154
vn 0.6563 -0.4925 -0.5716
vn -0.1363 -0.5620 -0.8158
vn 0.1227 -0.5247 -0.8424
vn 0.3117 -0.4104 -0.8570
vn -0.3957 -0.3426 -0.8521
vn 0.6264 0.4739 -0.6189
vn 0.4508 0.1352 -0.8823
vn 0.4878 -0.1369 -0.8621
vn 0.2875 0.4449 -0.8482
vn 0.1104 0.1809 -0.9773
vn 0.1678 -0.1197 -0.9785
vn 0.0158 0.5368 -0.8436
vn -0.2075 0.2599 -0.9431
vn -0.4921 0.2201 -0.8422
vn -0.5148 0.0224 -0.8570
vn -0.2205 -0.0503 -0.9741
vn -0.0426 -0.2297 -0.9723
vn -0.0024 0.0081 -1.0000
vn -0.1630 -0.0100 -0.9866
vn -0.5615 -0.0046 -0.8275
vn -0.2765 0.0249 -0.9607
vn -0.8943 0.0338 -0.4461
vn -0.9047 -0.0107 -0.4260
vn -1.0000 0.0039 -0.0085
vn -0.9122 0.0373 0.4081
vn -0.9608 -0.0079 0.2773
vn -0.7958 -0.0002 0.6055
vn -0.3090 0.0314 0.9505
vn -0.4993 -0.0019 0.8664
vn -0.1324 0.0184 0.9910
vn 0.3448 0.0160 -0.9386
vn 0.1905 -0.0047 -0.9817
vn 0.5574 -0.0149 -0.8301
vn 0.8173 0.0208 -0.5758
vn 0.9074 -0.0049 -0.4202
vn 0.9910 0.0374 0.1285
vn 0.9998 -0.0120 -0.0171
vn 0.9560 -0.0037 0.2934
vn 0.8115 0.0081 0.5842
vn 0.5224 0.0396 0.8518
vn 0.4698 -0.0242 0.8825
vn 0.1461 0.0341 0.9887
vt 0.656250 0.686035
vt 0.658081 0.779297
vt 0.560059 0.779297
vt 0.559692 0.687500
vt 0.792481 0.887695
vt 0.792481 0.979492
vt 0.798828 0.973144
vt 0.798828 0.894531
vt 0.771484 0.910644
vt 0.676758 0.910644
vt 0.683106 0.916992
vt 0.765137 0.916992
vt 0.872070 0.869629
vt 0.872070 0.960938
vt 0.878418 0.954590
vt 0.878418 0.875977
vt 0.771484 0.930664
vt 0.676758 0.930664
vt 0.683106 0.937500
vt 0.765137 0.937500
vt 0.731934 0.002020
vt 0.731936 0.037990
vt 0.002043 0.021553
vt 0.731934 0.082258
vt 0.002001 0.081566
vt 0.731934 0.125526
vt 0.002001 0.126521
vt 0.731934 0.170002
vt 0.002001 0.171063
vt 0.731934 0.227266
vt 0.002001 0.228320
vt 0.731934 0.282782
vt 0.002001 0.283786
vt 0.731934 0.327826
vt 0.002001 0.328819
vt 0.731934 0.372748
vt 0.002001 0.373741
vt 0.731934 0.419195
vt 0.002001 0.418205
vt 0.731961 0.037248
vt 0.001979 0.037910
vt 0.731814 0.001980
vt 0.001980 0.002020
vt 0.001980 0.086702
vt 0.731934 0.088048
vt 0.001980 0.162519
vt 0.731934 0.163612
vt 0.001980 0.214923
vt 0.731934 0.215985
vt 0.001980 0.249145
vt 0.731934 0.267822
vt 0.001980 0.281775
vt 0.001980 0.326942
vt 0.731934 0.327934
vt 0.001980 0.371864
vt 0.731934 0.388010
vt 0.001980 0.417319
vt 0.731934 0.428955
vt 0.560341 0.612609
vt 0.540595 0.684947
vt 0.571347 0.650558
vt 0.589899 0.595693
vt 0.580088 0.569677
vt 0.441320 0.697927
vt 0.446852 0.728175
vt 0.502746 0.710328
vt 0.394911 0.717713
vt 0.380924 0.679484
vt 0.354334 0.693619
vt 0.325848 0.657213
vt 0.341616 0.502805
vt 0.360155 0.469138
vt 0.315168 0.526300
vt 0.405618 0.452371
vt 0.418219 0.450617
vt 0.446533 0.447483
vt 0.474603 0.450615
vt 0.487201 0.452353
vt 0.407025 0.476583
vt 0.377439 0.497429
vt 0.386760 0.551679
vt 0.336692 0.550084
vt 0.308927 0.583293
vt 0.358131 0.618681
vt 0.313496 0.624214
vt 0.450692 0.645844
vt 0.516715 0.654395
vt 0.517763 0.599916
vt 0.434286 0.588013
vt 0.407741 0.526839
vt 0.485066 0.526994
vt 0.542325 0.555771
vt 0.521906 0.501922
vt 0.486024 0.473178
vt 0.527640 0.469081
vt 0.576541 0.529575
vt 0.562220 0.493729
vt 0.281500 0.530877
vt 0.291965 0.596961
vt 0.282340 0.569864
vt 0.061002 0.469951
vt 0.043800 0.502805
vt 0.016870 0.527643
vt 0.172070 0.441740
vt 0.176513 0.468737
vt 0.113262 0.446408
vt 0.122557 0.470619
vt 0.078735 0.496907
vt 0.221553 0.460420
vt 0.236097 0.510319
vt 0.257495 0.490808
vt 0.016996 0.640470
vt 0.044459 0.665319
vt 0.057540 0.693756
vt 0.011330 0.583777
vt 0.044503 0.617470
vt 0.039040 0.550084
vt 0.083337 0.679348
vt 0.114842 0.641214
vt 0.095265 0.542703
vt 0.102862 0.719953
vt 0.143618 0.697653
vt 0.160678 0.725187
vt 0.204614 0.710202
vt 0.208399 0.650729
vt 0.242511 0.685170
vt 0.254081 0.632932
vt 0.273211 0.651067
vt 0.264920 0.587195
vt 0.213938 0.569238
vt 0.161091 0.511716
vt 0.151795 0.579707
vt 0.073075 0.460543
vt 0.091414 0.460543
vt 0.077389 0.587812
vt 0.122849 0.587812
vt 0.123191 0.460543
vt 0.147533 0.460543
vt 0.170834 0.587812
vt 0.165901 0.460543
vt 0.182447 0.460543
vt 0.213278 0.587812
vt 0.206216 0.460543
vt 0.222090 0.460543
vt 0.211753 0.587812
vt 0.220571 0.460528
vt 0.230722 0.587812
vt 0.230711 0.460528
vt 0.203717 0.460528
vt 0.181318 0.587812
vt 0.171940 0.460528
vt 0.141820 0.587812
vt 0.147598 0.460528
vt 0.129230 0.460528
vt 0.112742 0.460528
vt 0.093662 0.587812
vt 0.088916 0.460528
vt 0.073158 0.460528
vt 0.064409 0.460528
vt 0.064409 0.587812
s 0
f 4/1/1 2/2/1 5/3/1
f 1/4/2 4/1/2 5/3/2
f 1/5/3 5/6/3 3/7/3
f 8/8/4 1/5/4 3/7/4
f 4/9/5 1/10/5 8/11/5
f 7/12/6 4/9/6 8/11/6
f 2/13/7 4/14/7 7/15/7
f 6/16/8 2/13/8 7/15/8
f 5/17/9 2/18/9 6/19/9
f 3/20/10 5/17/10 6/19/10
s 1
f 10/21/11 9/22/12 52/23/13
f 9/22/12 46/24/14 52/23/13
f 46/24/14 51/25/15 52/23/13
f 46/24/14 11/26/16 51/25/15
f 11/26/16 12/27/17 51/25/15
f 11/26/16 47/28/18 12/27/17
f 47/28/18 49/29/19 12/27/17
f 47/28/18 14/30/20 49/29/19
f 14/30/20 13/31/21 49/29/19
f 14/30/20 27/32/22 13/31/21
f 27/32/22 59/33/23 13/31/21
f 27/32/22 26/34/24 59/33/23
f 26/34/24 60/35/25 59/33/23
f 26/34/24 25/36/26 60/35/25
f 25/36/26 61/37/27 60/35/25
f 25/36/26 21/38/28 61/37/27
f 21/38/28 62/39/29 61/37/27
f 53/40/30 15/41/31 52/42/13
f 15/41/31 10/43/11 52/42/13
f 32/44/32 15/41/31 53/40/30
f 16/45/33 32/44/32 53/40/30
f 23/46/34 32/44/32 16/45/33
f 17/47/35 23/46/34 16/45/33
f 22/48/36 23/46/34 17/47/35
f 67/49/37 22/48/36 17/47/35
f 18/50/38 22/48/36 67/49/37
f 66/51/39 18/50/38 67/49/37
f 19/52/40 18/50/38 66/51/39
f 20/53/41 19/52/40 66/51/39
f 64/54/42 20/53/41 66/51/39
f 24/55/43 20/53/41 64/54/42
f 63/56/44 24/55/43 64/54/42
f 21/57/28 24/55/43 63/56/44
f 62/58/29 21/57/28 63/56/44
f 28/59/45 26/60/24 27/61/22
f 28/59/45 27/61/22 14/62/20
f 28/59/45 14/62/20 48/63/46
f 29/64/47 21/65/28 25/66/26
f 29/64/47 24/67/43 21/65/28
f 29/64/47 30/68/48 24/67/43
f 30/68/48 20/69/41 24/67/43
f 30/68/48 19/70/40 20/69/41
f 31/71/49 32/72/32 23/73/34
f 15/74/31 33/75/50 10/76/11
f 10/76/11 34/77/51 9/78/12
f 35/79/52 15/74/31 32/72/32
f 36/80/53 35/79/52 32/72/32
f 36/80/53 32/72/32 31/71/49
f 35/79/52 36/80/53 37/81/54
f 38/82/55 31/71/49 23/73/34
f 36/80/53 31/71/49 38/82/55
f 38/82/55 23/73/34 22/83/36
f 37/81/54 36/80/53 38/82/55
f 39/84/56 38/82/55 22/83/36
f 39/84/56 22/83/36 18/85/38
f 37/81/54 38/82/55 39/84/56
f 39/84/56 18/85/38 19/70/40
f 30/68/48 39/84/56 19/70/40
f 40/86/57 30/68/48 29/64/47
f 40/86/57 39/84/56 30/68/48
f 41/87/58 29/64/47 25/66/26
f 41/87/58 25/66/26 26/60/24
f 40/86/57 29/64/47 41/87/58
f 41/87/58 26/60/24 28/59/45
f 42/88/59 41/87/58 28/59/45
f 40/86/57 41/87/58 42/88/59
f 43/89/60 39/84/56 40/86/57
f 43/89/60 40/86/57 42/88/59
f 43/89/60 37/81/54 39/84/56
f 43/89/60 80/90/61 37/81/54
f 80/90/61 35/79/52 37/81/54
f 43/89/60 81/91/62 80/90/61
f 42/88/59 81/91/62 43/89/60
f 81/91/62 45/92/63 44/93/64
f 42/88/59 45/92/63 81/91/62
f 82/94/65 46/95/14 9/78/12
f 82/94/65 44/93/64 46/95/14
f 46/95/14 47/96/18 11/97/16
f 44/93/64 47/96/18 46/95/14
f 45/92/63 47/96/18 44/93/64
f 14/62/20 47/96/18 48/63/46
f 45/92/63 48/63/46 47/96/18
f 28/59/45 48/63/46 45/92/63
f 42/88/59 28/59/45 45/92/63
f 49/98/19 13/99/21 50/100/66
f 16/101/33 54/102/67 17/103/35
f 52/104/13 55/105/68 53/106/30
f 55/105/68 56/107/69 53/106/30
f 53/106/30 56/107/69 16/101/33
f 56/107/69 57/108/70 16/101/33
f 16/101/33 57/108/70 54/102/67
f 51/109/15 55/105/68 52/104/13
f 58/110/71 55/105/68 51/109/15
f 12/111/17 58/110/71 51/109/15
f 49/98/19 58/110/71 12/111/17
f 50/100/66 58/110/71 49/98/19
f 66/112/39 65/113/72 64/114/42
f 67/115/37 68/116/73 66/112/39
f 66/112/39 68/116/73 65/113/72
f 54/102/67 69/117/74 17/103/35
f 17/103/35 69/117/74 67/115/37
f 69/117/74 68/116/73 67/115/37
f 65/113/72 70/118/75 64/114/42
f 68/116/73 70/118/75 65/113/72
f 68/116/73 71/119/76 70/118/75
f 69/117/74 72/120/77 68/116/73
f 64/114/42 70/118/75 63/121/44
f 68/116/73 72/120/77 71/119/76
f 70/118/75 73/122/78 63/121/44
f 63/121/44 73/122/78 62/123/29
f 70/118/75 71/119/76 73/122/78
f 62/123/29 73/122/78 61/124/27
f 73/122/78 74/125/79 61/124/27
f 61/124/27 74/125/79 60/126/25
f 71/119/76 74/125/79 73/122/78
f 60/126/25 75/127/80 59/128/23
f 60/126/25 74/125/79 75/127/80
f 59/128/23 75/127/80 13/99/21
f 75/127/80 76/129/81 13/99/21
f 13/99/21 76/129/81 50/100/66
f 74/125/79 77/130/82 75/127/80
f 75/127/80 77/130/82 76/129/81
f 50/100/66 76/129/81 58/110/71
f 76/129/81 77/130/82 58/110/71
f 58/110/71 78/131/83 55/105/68
f 77/130/82 78/131/83 58/110/71
f 55/105/68 78/131/83 56/107/69
f 56/107/69 72/120/77 57/108/70
f 78/131/83 72/120/77 56/107/69
f 54/102/67 57/108/70 69/117/74
f 57/108/70 72/120/77 69/117/74
f 78/131/83 79/132/84 72/120/77
f 77/130/82 79/132/84 78/131/83
f 74/125/79 79/132/84 77/130/82
f 71/119/76 79/132/84 74/125/79
f 72/120/77 79/132/84 71/119/76
f 83/133/85 84/134/86 94/135/87
f 84/134/86 85/136/88 94/135/87
f 84/134/86 86/137/89 85/136/88
f 86/137/89 87/138/90 85/136/88
f 87/138/90 88/139/91 85/136/88
f 87/138/90 89/140/92 88/139/91
f 89/140/92 90/141/93 88/139/91
f 90/141/93 91/142/94 88/139/91
f 90/141/93 92/143/95 91/142/94
f 92/143/95 93/144/96 91/142/94
f 95/145/97 96/146/98 94/147/87
f 96/146/98 83/148/85 94/147/87
f 97/149/99 96/146/98 95/145/97
f 98/150/100 97/149/99 95/145/97
f 99/151/101 97/149/99 98/150/100
f 100/152/102 99/151/101 98/150/100
f 101/153/103 99/151/101 100/152/102
f 102/154/104 101/153/103 100/152/102
f 103/155/105 102/154/104 100/152/102
f 104/156/106 103/155/105 100/152/102
f 105/157/107 103/155/105 104/156/106
f 106/158/108 105/157/107 104/156/106
f 93/159/96 106/158/108 104/156/106
f 91/160/94 93/159/96 104/156/106
f 81/91/62 44/93/64 82/94/65
