g box1_LOD1
v -0.4146473 1.001635 0.7164798
v 0.4146473 1.001635 0.7164798
v -0.4146473 -0.002769451 0.7164798
v 0.4146473 -0.002769451 0.7164798
v -0.4146473 1.001635 -0.7164798
v 0.4146473 1.001635 -0.7164798
v 0.4146473 1.001635 0.7164798
v -0.4146473 1.001635 0.7164798
v -0.4146473 1.001635 -0.7164798
v -0.4146473 1.001635 0.7164798
v -0.4146473 -0.00276947 -0.7164798
v -0.4146473 -0.002769451 0.7164798
v 0.4146473 1.001635 -0.7164798
v 0.4146473 -0.00276947 -0.7164798
v 0.4146473 1.001635 0.7164798
v 0.4146473 -0.002769451 0.7164798
v -0.4146473 1.001635 -0.7164798
v -0.4146473 -0.00276947 -0.7164798
v 0.4146473 1.001635 -0.7164798
v 0.4146473 -0.00276947 -0.7164798
v -0.4146473 -0.002769451 0.7164798
v 0.4146473 -0.002769451 0.7164798
v -0.4146473 -0.00276947 -0.7164798
v 0.4146473 -0.00276947 -0.7164798
vt 0.5240243 0.6720245
vt 0.7402495 0.6720245
vt 0.5240244 0.3989272
vt 0.7402495 0.3989273
vt 0.5493656 0.3821943
vt 0.7572725 0.3821943
vt 0.7572723 0.007682694
vt 0.5493658 0.007682694
vt 0.2659315 0.3913781
vt 0.2659315 0.004800255
vt 0.005950322 0.3913781
vt 0.005950381 0.004800247
vt 0.2762569 0.3913778
vt 0.5362384 0.391378
vt 0.2762571 0.004800255
vt 0.5362384 0.004800523
vt 0.5232683 0.6786826
vt 0.5232683 0.9517791
vt 0.7394944 0.6786826
vt 0.7394944 0.9517791
vt 0.7652033 0.3830433
vt 0.9731098 0.3830438
vt 0.7652031 0.008531369
vt 0.9731098 0.008531369
vn 0 0 1
vn 0 0 1
vn 0 0 1
vn 0 0 1
vn 0 1 0
vn 0 1 0
vn 0 1 0
vn 0 1 0
vn -1 0 0
vn -1 0 0
vn -1 0 0
vn -1 0 0
vn 1 0 0
vn 1 0 0
vn 1 0 0
vn 1 0 0
vn 0 0 -1
vn 0 0 -1
vn 0 0 -1
vn 0 0 -1
vn 0 -1 0
vn 0 -1 0
vn 0 -1 0
vn 0 -1 0
g box1_LOD1_0
f 3/3/3 2/2/2 1/1/1
f 3/3/3 4/4/4 2/2/2
f 7/7/7 6/6/6 5/5/5
f 5/5/5 8/8/8 7/7/7
f 11/11/11 10/10/10 9/9/9
f 11/11/11 12/12/12 10/10/10
f 15/15/15 14/14/14 13/13/13
f 16/16/16 14/14/14 15/15/15
f 19/19/19 18/18/18 17/17/17
f 20/20/20 18/18/18 19/19/19
f 23/23/23 22/22/22 21/21/21
f 23/23/23 24/24/24 22/22/22
