g box1
v 0.4146506 0.9375145 -0.6496176
v 0.4146506 0.9375145 0.6496177
v 0.4146473 1.001635 0.7164798
v 0.4146473 1.001635 -0.7164798
v 0.4146506 0.9375145 -0.6496176
v 0.4146473 1.001635 0.7164798
v -0.4146506 0.9375145 0.6496177
v -0.3626771 0.9375146 0.6496176
v -0.4146506 0.9375145 -0.6496176
v -0.3626771 0.9375146 0.6496176
v -0.3626771 0.9375147 -0.6496174
v -0.4146506 0.9375145 -0.6496176
v 0.3460732 1.00164 0.646113
v 0.3460741 0.9759781 0.646151
v 0.3460741 0.9759781 -0.6461508
v 0.3460741 0.9759781 -0.6461508
v 0.3460732 1.00164 -0.6461128
v 0.3460732 1.00164 0.646113
v -0.3456295 0.9373417 0.7164629
v -0.3456289 0.9373395 0.6700192
v -0.3456289 0.06152643 0.6700192
v -0.3456289 0.06152643 0.6700192
v -0.3456295 0.06152412 0.7164628
v -0.3456295 0.9373417 0.7164629
v 0.4146473 1.001635 -0.7164798
v 0.3456295 0.9373417 -0.7164627
v 0.4146473 -0.00276947 -0.7164798
v 0.3456295 0.9373417 -0.7164627
v 0.3456295 0.06152412 -0.7164627
v 0.4146473 -0.00276947 -0.7164798
v 0.3456295 0.9373417 -0.7164627
v 0.345629 0.9373395 -0.670019
v 0.345629 0.06152645 -0.670019
v 0.345629 0.06152645 -0.670019
v 0.3456295 0.06152412 -0.7164627
v 0.3456295 0.9373417 -0.7164627
v -0.3456295 0.9373417 -0.7164627
v -0.4146473 1.001635 -0.7164798
v -0.4146473 -0.00276947 -0.7164798
v -0.4146473 -0.00276947 -0.7164798
v -0.3456295 0.06152412 -0.7164627
v -0.3456295 0.9373417 -0.7164627
v -0.3456289 0.06152645 -0.670019
v -0.3456289 0.9373395 -0.670019
v -0.3456295 0.9373417 -0.7164627
v -0.3456295 0.9373417 -0.7164627
v -0.3456295 0.06152412 -0.7164627
v -0.3456289 0.06152645 -0.670019
v 0.3626772 0.06135113 0.6496176
v 0.3626772 0.06135113 -0.6496174
v 0.4146506 0.06135139 -0.6496176
v 0.4146506 0.06135139 -0.6496176
v 0.4146506 0.06135139 0.6496177
v 0.3626772 0.06135113 0.6496176
v 0.3460732 -0.002774048 -0.6461128
v 0.3460741 0.02288773 -0.6461509
v 0.3460732 -0.002774067 0.646113
v 0.3460741 0.02288774 0.646151
v 0.3460732 -0.002774067 0.646113
v 0.3460741 0.02288773 -0.6461509
v -0.4146473 -0.00276947 -0.7164798
v -0.4146506 0.06135139 -0.6496176
v -0.4146473 -0.002769451 0.7164798
v -0.4146506 0.06135139 -0.6496176
v -0.4146506 0.06135139 0.6496177
v -0.4146473 -0.002769451 0.7164798
v 0.3456295 0.9373417 0.7164629
v 0.4146473 1.001635 0.7164798
v 0.4146473 -0.002769451 0.7164798
v 0.4146473 -0.002769451 0.7164798
v 0.3456295 0.06152412 0.7164628
v 0.3456295 0.9373417 0.7164629
v -0.4146473 1.001635 0.7164798
v -0.3456295 0.9373417 0.7164629
v -0.4146473 -0.002769451 0.7164798
v -0.3456295 0.9373417 0.7164629
v -0.3456295 0.06152412 0.7164628
v -0.4146473 -0.002769451 0.7164798
v 0.4146473 1.001635 0.7164798
v 0.3456295 0.9373417 0.7164629
v -0.4146473 1.001635 0.7164798
v -0.3456295 0.9373417 0.7164629
v 0.3456295 0.9373417 0.7164629
v 0.345629 0.9373395 0.6700192
v -0.3456289 0.9373395 0.6700192
v -0.3456295 0.9373417 0.7164629
v 0.3460741 0.9759781 0.646151
v 0.3460732 1.00164 0.646113
v -0.346074 0.9759781 0.646151
v -0.3460732 1.00164 0.646113
v 0.3626772 0.9375146 0.6496176
v 0.4146506 0.9375145 0.6496177
v 0.4146506 0.9375145 -0.6496176
v 0.3626772 0.9375147 -0.6496174
v -0.4146473 1.001635 -0.7164798
v -0.3460732 1.00164 -0.6461128
v -0.4146473 1.001635 0.7164798
v -0.3460732 1.00164 -0.6461128
v 0.4146473 1.001635 -0.7164798
v -0.3460732 1.00164 0.646113
v 0.3460732 1.00164 -0.6461128
v 0.4146473 1.001635 0.7164798
v 0.3460732 1.00164 0.646113
v -0.346074 0.9759781 0.646151
v -0.3460732 1.00164 0.646113
v -0.346074 0.9759781 -0.6461508
v -0.3460732 1.00164 -0.6461128
v 0.3460741 0.9759781 0.646151
v -0.346074 0.9759781 -0.6461508
v 0.3460741 0.9759781 -0.6461508
v -0.346074 0.9759781 0.646151
v -0.4146473 1.001635 -0.7164798
v -0.3456295 0.9373417 -0.7164627
v 0.4146473 1.001635 -0.7164798
v 0.3456295 0.9373417 -0.7164627
v -0.3456295 0.9373417 -0.7164627
v -0.3456289 0.9373395 -0.670019
v 0.3456295 0.9373417 -0.7164627
v 0.345629 0.9373395 -0.670019
v -0.346074 0.9759781 -0.6461508
v -0.3460732 1.00164 -0.6461128
v 0.3460732 1.00164 -0.6461128
v 0.3460741 0.9759781 -0.6461508
v -0.4146473 1.001635 0.7164798
v -0.4146506 0.9375145 0.6496177
v -0.4146506 0.9375145 -0.6496176
v -0.4146473 1.001635 -0.7164798
v 0.4146473 1.001635 0.7164798
v 0.4146506 0.9375145 0.6496177
v 0.4146473 -0.002769451 0.7164798
v 0.4146506 0.06135139 0.6496177
v 0.4146506 0.06135139 0.6496177
v 0.4146506 0.9375145 0.6496177
v 0.3626772 0.9375146 0.6496176
v 0.3626772 0.06135113 0.6496176
v -0.4146506 0.9375145 0.6496177
v -0.4146473 1.001635 0.7164798
v -0.4146473 -0.002769451 0.7164798
v -0.4146506 0.06135139 0.6496177
v -0.3456289 0.06152643 0.6700192
v -0.3456289 0.9373395 0.6700192
v 0.345629 0.9373395 0.6700192
v 0.345629 0.06152643 0.6700192
v 0.4146506 0.9375145 -0.6496176
v 0.4146473 1.001635 -0.7164798
v 0.4146473 -0.00276947 -0.7164798
v 0.4146506 0.06135139 -0.6496176
v 0.3626772 0.9375147 -0.6496174
v 0.4146506 0.9375145 -0.6496176
v 0.4146506 0.06135139 -0.6496176
v 0.3626772 0.06135113 -0.6496174
v -0.4146473 1.001635 -0.7164798
v -0.4146506 0.9375145 -0.6496176
v -0.4146473 -0.00276947 -0.7164798
v -0.4146506 0.06135139 -0.6496176
v -0.4146473 -0.002769451 0.7164798
v -0.3456295 0.06152412 0.7164628
v 0.4146473 -0.002769451 0.7164798
v 0.3456295 0.06152412 0.7164628
v -0.3456295 0.06152412 0.7164628
v -0.3456289 0.06152643 0.6700192
v 0.3456295 0.06152412 0.7164628
v 0.345629 0.06152643 0.6700192
v -0.346074 0.02288774 0.646151
v -0.3460732 -0.002774067 0.646113
v 0.3460732 -0.002774067 0.646113
v 0.3460741 0.02288774 0.646151
v 0.4146473 -0.002769451 0.7164798
v 0.4146506 0.06135139 0.6496177
v 0.4146506 0.06135139 -0.6496176
v 0.4146473 -0.00276947 -0.7164798
v -0.4146473 -0.002769451 0.7164798
v -0.3460732 -0.002774067 0.646113
v -0.3460732 -0.002774048 -0.6461128
v 0.4146473 -0.002769451 0.7164798
v 0.3460732 -0.002774067 0.646113
v 0.3460732 -0.002774048 -0.6461128
v 0.4146473 -0.00276947 -0.7164798
v -0.3460732 -0.002774048 -0.6461128
v -0.4146473 -0.00276947 -0.7164798
v -0.346074 0.02288773 -0.6461509
v -0.3460732 -0.002774048 -0.6461128
v -0.3460732 -0.002774067 0.646113
v -0.346074 0.02288774 0.646151
v -0.4146506 0.06135139 -0.6496176
v -0.3626771 0.06135113 -0.6496174
v -0.3626771 0.06135113 0.6496176
v -0.4146506 0.06135139 0.6496177
v 0.4146473 -0.00276947 -0.7164798
v 0.3456295 0.06152412 -0.7164627
v -0.4146473 -0.00276947 -0.7164798
v -0.3456295 0.06152412 -0.7164627
v 0.3456295 0.06152412 -0.7164627
v 0.345629 0.06152645 -0.670019
v -0.3456289 0.06152645 -0.670019
v -0.3456295 0.06152412 -0.7164627
v -0.346074 0.02288773 -0.6461509
v 0.3460741 0.02288773 -0.6461509
v 0.3460732 -0.002774048 -0.6461128
v -0.3460732 -0.002774048 -0.6461128
v -0.346074 0.02288774 0.646151
v 0.3460741 0.02288774 0.646151
v 0.3460741 0.02288773 -0.6461509
v -0.346074 0.02288773 -0.6461509
v 0.3626772 0.9375146 0.6496176
v 0.3626772 0.9375147 -0.6496174
v 0.3626772 0.06135113 -0.6496174
v 0.3626772 0.06135113 0.6496176
v 0.345629 0.06152643 0.6700192
v 0.345629 0.9373395 0.6700192
v 0.3456295 0.9373417 0.7164629
v 0.3456295 0.06152412 0.7164628
v -0.3626771 0.9375146 0.6496176
v -0.4146506 0.9375145 0.6496177
v -0.4146506 0.06135139 0.6496177
v -0.3626771 0.06135113 0.6496176
v -0.3626771 0.06135113 -0.6496174
v -0.3626771 0.9375147 -0.6496174
v -0.3626771 0.9375146 0.6496176
v -0.3626771 0.06135113 0.6496176
v -0.4146506 0.06135139 -0.6496176
v -0.4146506 0.9375145 -0.6496176
v -0.3626771 0.9375147 -0.6496174
v -0.3626771 0.06135113 -0.6496174
v 0.345629 0.9373395 -0.670019
v -0.3456289 0.9373395 -0.670019
v 0.345629 0.06152645 -0.670019
v -0.3456289 0.06152645 -0.670019
vt 0.2914647 0.3747663
vt 0.2914649 0.02141139
vt 0.2762571 0.004800255
vt 0.2762569 0.3913778
vt 0.2914647 0.3747663
vt 0.2762571 0.004800255
vt 0.2507236 0.02141138
vt 0.2464795 0.02584143
vt 0.2507236 0.374767
vt 0.2464795 0.02584143
vt 0.2464795 0.3703371
vt 0.2507236 0.374767
vt 0.7407579 0.0253874
vt 0.7387246 0.02750318
vt 0.7387246 0.3623736
vt 0.7387246 0.3623736
vt 0.7407579 0.3644896
vt 0.7407579 0.0253874
vt 0.540747 0.6558481
vt 0.5445657 0.6518617
vt 0.5445662 0.41909
vt 0.5445662 0.41909
vt 0.540747 0.4151036
vt 0.540747 0.6558481
vt 0.7394944 0.6786826
vt 0.7227722 0.6948591
vt 0.7394944 0.9517791
vt 0.7227722 0.6948591
vt 0.7227722 0.935603
vt 0.7394944 0.9517791
vt 0.7227722 0.6948591
vt 0.718953 0.6988456
vt 0.718953 0.9316165
vt 0.718953 0.9316165
vt 0.7227722 0.935603
vt 0.7227722 0.6948591
vt 0.539991 0.6948591
vt 0.5232683 0.6786826
vt 0.5232683 0.9517791
vt 0.5232683 0.9517791
vt 0.539991 0.935603
vt 0.539991 0.6948591
vt 0.5438097 0.9316165
vt 0.5438097 0.6988456
vt 0.539991 0.6948591
vt 0.539991 0.6948591
vt 0.539991 0.935603
vt 0.5438097 0.9316165
vt 0.5167865 0.02584157
vt 0.5167865 0.3703367
vt 0.5210304 0.3747663
vt 0.5210304 0.3747663
vt 0.5210307 0.0214114
vt 0.5167865 0.02584157
vt 0.9565954 0.02623633
vt 0.9545618 0.0283521
vt 0.9565954 0.3653391
vt 0.9545618 0.3632231
vt 0.9565954 0.3653391
vt 0.9545618 0.0283521
vt 0.005950322 0.3913781
vt 0.02115815 0.3747669
vt 0.005950381 0.004800247
vt 0.02115815 0.3747669
vt 0.02115827 0.02141137
vt 0.005950381 0.004800247
vt 0.7235273 0.6558481
vt 0.7402495 0.6720245
vt 0.7402495 0.3989273
vt 0.7402495 0.3989273
vt 0.7235275 0.4151036
vt 0.7235273 0.6558481
vt 0.5240243 0.6720245
vt 0.540747 0.6558481
vt 0.5240244 0.3989272
vt 0.540747 0.6558481
vt 0.540747 0.4151036
vt 0.5240244 0.3989272
vt 0.7402495 0.6720245
vt 0.7235273 0.6558481
vt 0.5240243 0.6720245
vt 0.540747 0.6558481
vt 0.7235273 0.6558481
vt 0.7197086 0.6518617
vt 0.5445657 0.6518617
vt 0.540747 0.6558481
vt 0.7387246 0.02750318
vt 0.7407579 0.0253874
vt 0.5679133 0.02750318
vt 0.5658798 0.0253874
vt 0.295709 0.02584155
vt 0.2914649 0.02141139
vt 0.2914647 0.3747663
vt 0.295709 0.3703367
vt 0.5493656 0.3821943
vt 0.5658798 0.3644896
vt 0.5493658 0.007682694
vt 0.5658798 0.3644896
vt 0.7572725 0.3821943
vt 0.5658798 0.0253874
vt 0.7407579 0.3644896
vt 0.7572723 0.007682694
vt 0.7407579 0.0253874
vt 0.5679133 0.02750318
vt 0.5658798 0.0253874
vt 0.5679133 0.3623736
vt 0.5658798 0.3644896
vt 0.7387246 0.02750318
vt 0.5679133 0.3623736
vt 0.7387246 0.3623736
vt 0.5679133 0.02750318
vt 0.5232683 0.6786826
vt 0.539991 0.6948591
vt 0.7394944 0.6786826
vt 0.7227722 0.6948591
vt 0.539991 0.6948591
vt 0.5438097 0.6988456
vt 0.7227722 0.6948591
vt 0.718953 0.6988456
vt 0.5679133 0.3623736
vt 0.5658798 0.3644896
vt 0.7407579 0.3644896
vt 0.7387246 0.3623736
vt 0.2659315 0.004800255
vt 0.2507236 0.02141138
vt 0.2507236 0.374767
vt 0.2659315 0.3913781
vt 0.2762571 0.004800255
vt 0.2914649 0.02141139
vt 0.5362384 0.004800523
vt 0.5210307 0.0214114
vt 0.5210307 0.0214114
vt 0.2914649 0.02141139
vt 0.295709 0.02584155
vt 0.5167865 0.02584157
vt 0.2507236 0.02141138
vt 0.2659315 0.004800255
vt 0.005950381 0.004800247
vt 0.02115827 0.02141137
vt 0.5445662 0.41909
vt 0.5445657 0.6518617
vt 0.7197086 0.6518617
vt 0.7197086 0.41909
vt 0.2914647 0.3747663
vt 0.2762569 0.3913778
vt 0.5362384 0.391378
vt 0.5210304 0.3747663
vt 0.295709 0.3703367
vt 0.2914647 0.3747663
vt 0.5210304 0.3747663
vt 0.5167865 0.3703367
vt 0.2659315 0.3913781
vt 0.2507236 0.374767
vt 0.005950322 0.3913781
vt 0.02115815 0.3747669
vt 0.5240244 0.3989272
vt 0.540747 0.4151036
vt 0.7402495 0.3989273
vt 0.7235275 0.4151036
vt 0.540747 0.4151036
vt 0.5445662 0.41909
vt 0.7235275 0.4151036
vt 0.7197086 0.41909
vt 0.7837512 0.3632231
vt 0.7817174 0.3653391
vt 0.9565954 0.3653391
vt 0.9545618 0.3632231
vt 0.5362384 0.004800523
vt 0.5210307 0.0214114
vt 0.5210304 0.3747663
vt 0.5362384 0.391378
vt 0.7652033 0.3830433
vt 0.7817174 0.3653391
vt 0.7817177 0.02623607
vt 0.9731098 0.3830438
vt 0.9565954 0.3653391
vt 0.9565954 0.02623633
vt 0.9731098 0.008531369
vt 0.7817177 0.02623607
vt 0.7652031 0.008531369
vt 0.7837512 0.0283521
vt 0.7817177 0.02623607
vt 0.7817174 0.3653391
vt 0.7837512 0.3632231
vt 0.02115815 0.3747669
vt 0.02540231 0.3703371
vt 0.02540231 0.02584142
vt 0.02115827 0.02141137
vt 0.7394944 0.9517791
vt 0.7227722 0.935603
vt 0.5232683 0.9517791
vt 0.539991 0.935603
vt 0.7227722 0.935603
vt 0.718953 0.9316165
vt 0.5438097 0.9316165
vt 0.539991 0.935603
vt 0.7837512 0.0283521
vt 0.9545618 0.0283521
vt 0.9565954 0.02623633
vt 0.7817177 0.02623607
vt 0.7837512 0.3632231
vt 0.9545618 0.3632231
vt 0.9545618 0.0283521
vt 0.7837512 0.0283521
vt 0.295709 0.02584155
vt 0.295709 0.3703367
vt 0.5167865 0.3703367
vt 0.5167865 0.02584157
vt 0.7197086 0.41909
vt 0.7197086 0.6518617
vt 0.7235273 0.6558481
vt 0.7235275 0.4151036
vt 0.2464795 0.02584143
vt 0.2507236 0.02141138
vt 0.02115827 0.02141137
vt 0.02540231 0.02584142
vt 0.02540231 0.3703371
vt 0.2464795 0.3703371
vt 0.2464795 0.02584143
vt 0.02540231 0.02584142
vt 0.02115815 0.3747669
vt 0.2507236 0.374767
vt 0.2464795 0.3703371
vt 0.02540231 0.3703371
vt 0.718953 0.6988456
vt 0.5438097 0.6988456
vt 0.718953 0.9316165
vt 0.5438097 0.9316165
vn 1 5.244432E-05 0
vn 1 5.244432E-05 0
vn 1 5.244432E-05 0
vn 1 5.244432E-05 0
vn 1 5.244432E-05 0
vn 1 5.244432E-05 0
vn 4.411479E-06 -1 0
vn 4.411479E-06 -1 0
vn 4.411479E-06 -1 0
vn 4.411479E-06 -1 0
vn 4.411479E-06 -1 0
vn 4.411479E-06 -1 0
vn -1 -3.573875E-05 0
vn -1 -3.573875E-05 0
vn -1 -3.573875E-05 0
vn -1 -3.573875E-05 0
vn -1 -3.573875E-05 0
vn -1 -3.573875E-05 0
vn 1 0 1.151908E-05
vn 1 0 1.151908E-05
vn 1 0 1.151908E-05
vn 1 0 1.151908E-05
vn 1 0 1.151908E-05
vn 1 0 1.151908E-05
vn -0.0002480461 0 -1
vn -0.0002480461 0 -1
vn -0.0002480461 0 -1
vn -0.0002480461 0 -1
vn -0.0002480461 0 -1
vn -0.0002480461 0 -1
vn -1 0 -9.873488E-06
vn -1 0 -9.873488E-06
vn -1 0 -9.873488E-06
vn -1 0 -9.873488E-06
vn -1 0 -9.873488E-06
vn -1 0 -9.873488E-06
vn 0.0002480461 0 -1
vn 0.0002480461 0 -1
vn 0.0002480461 0 -1
vn 0.0002480461 0 -1
vn 0.0002480461 0 -1
vn 0.0002480461 0 -1
vn 1 0 -1.151907E-05
vn 1 0 -1.151907E-05
vn 1 0 -1.151907E-05
vn 1 0 -1.151907E-05
vn 1 0 -1.151907E-05
vn 1 0 -1.151907E-05
vn -5.054834E-06 1 0
vn -5.054834E-06 1 0
vn -5.054834E-06 1 0
vn -5.054835E-06 1 0
vn -5.054835E-06 1 0
vn -5.054835E-06 1 0
vn -1 3.573876E-05 0
vn -1 3.573876E-05 0
vn -1 3.573876E-05 0
vn -1 3.573875E-05 0
vn -1 3.573875E-05 0
vn -1 3.573875E-05 0
vn -1 -5.244435E-05 0
vn -1 -5.244435E-05 0
vn -1 -5.244435E-05 0
vn -1 -5.244435E-05 0
vn -1 -5.244435E-05 0
vn -1 -5.244435E-05 0
vn -0.0002463851 0 1
vn -0.0002463851 0 1
vn -0.0002463851 0 1
vn -0.0002463851 0 1
vn -0.0002463851 0 1
vn -0.0002463851 0 1
vn 0.0002463851 0 1
vn 0.0002463851 0 1
vn 0.0002463851 0 1
vn 0.0002463851 0 1
vn 0.0002463851 0 1
vn 0.0002463851 0 1
vn 0 -0.0002644889 1
vn 0 -0.000264489 1
vn 0 -0.000264489 1
vn 0 -0.000264489 1
vn 0 -1 4.936748E-05
vn 0 -1 4.936747E-05
vn 0 -1 4.936748E-05
vn 0 -1 4.936748E-05
vn 0 -0.001484646 -0.9999989
vn 0 -0.001484646 -0.9999989
vn 0 -0.001484646 -0.9999989
vn 0 -0.001484646 -0.9999989
vn -4.411492E-06 -1 0
vn -4.411492E-06 -1 0
vn -4.411492E-06 -1 0
vn -4.411492E-06 -1 0
vn -6.687078E-05 1 0
vn -6.687078E-05 1 0
vn 0 1 6.51671E-05
vn -6.687077E-05 1 0
vn 6.687085E-05 1 0
vn 0 1 6.51671E-05
vn 6.687085E-05 1 0
vn 0 1 6.51671E-05
vn 0 1 6.51671E-05
vn 1 -3.276052E-05 0
vn 1 -3.276052E-05 0
vn 1 -3.276052E-05 0
vn 1 -3.276052E-05 0
vn 0 1 0
vn 0 1 0
vn 0 1 0
vn 0 1 0
vn 0 -0.000266272 -1
vn 0 -0.0002662721 -1
vn 0 -0.0002662721 -1
vn 0 -0.0002662721 -1
vn 0 -1 -4.936743E-05
vn 0 -1 -4.936743E-05
vn 0 -1 -4.936743E-05
vn 0 -1 -4.936743E-05
vn 0 -0.001483157 0.9999989
vn 0 -0.001483157 0.9999989
vn 0 -0.001483157 0.9999989
vn 0 -0.001483156 0.9999989
vn -1 5.244432E-05 0
vn -1 5.244432E-05 0
vn -1 5.244432E-05 0
vn -1 5.244432E-05 0
vn 1 0 5.029426E-05
vn 1 0 5.029426E-05
vn 1 0 5.029426E-05
vn 1 0 5.029426E-05
vn 5.146741E-06 0 -1
vn 5.146741E-06 0 -1
vn 5.146741E-06 0 -1
vn 5.146741E-06 0 -1
vn -1 0 5.029426E-05
vn -1 0 5.029426E-05
vn -1 0 5.029426E-05
vn -1 0 5.029426E-05
vn 0 0 1
vn 0 0 1
vn 0 0 1
vn 0 0 1
vn 1 0 -5.029411E-05
vn 1 0 -5.029412E-05
vn 1 0 -5.029411E-05
vn 1 0 -5.029411E-05
vn 2.940995E-06 0 1
vn 2.940995E-06 0 1
vn 2.940995E-06 0 1
vn 2.940995E-06 0 1
vn -1 0 -5.029412E-05
vn -1 0 -5.029411E-05
vn -1 0 -5.029411E-05
vn -1 0 -5.029411E-05
vn 0 0.000264489 1
vn 0 0.000264489 1
vn 0 0.000264489 1
vn 0 0.000264489 1
vn 0 1 4.957318E-05
vn 0 1 4.957318E-05
vn 0 1 4.957318E-05
vn 0 1 4.957318E-05
vn 0 0.001484646 -0.9999989
vn 0 0.001484646 -0.9999989
vn 0 0.001484646 -0.9999989
vn 0 0.001484646 -0.9999989
vn 1 -5.244435E-05 0
vn 1 -5.244434E-05 0
vn 1 -5.244435E-05 0
vn 1 -5.244435E-05 0
vn 0 -1 6.543862E-05
vn 0 -1 6.543862E-05
vn -6.71494E-05 -1 0
vn 0 -1 6.543862E-05
vn 0 -1 6.543863E-05
vn 6.714948E-05 -1 0
vn 6.714948E-05 -1 0
vn -6.714941E-05 -1 0
vn -6.714941E-05 -1 0
vn 1 3.276053E-05 0
vn 1 3.276053E-05 0
vn 1 3.276053E-05 0
vn 1 3.276053E-05 0
vn 5.05482E-06 1 0
vn 5.054821E-06 1 0
vn 5.05482E-06 1 0
vn 5.054821E-06 1 0
vn 0 0.0002662721 -1
vn 0 0.0002662721 -1
vn 0 0.0002662721 -1
vn 0 0.0002662721 -1
vn 0 1 -4.957313E-05
vn 0 1 -4.957313E-05
vn 0 1 -4.957313E-05
vn 0 1 -4.957313E-05
vn 0 0.001483157 0.9999989
vn 0 0.001483157 0.9999989
vn 0 0.001483157 0.9999989
vn 0 0.001483157 0.9999989
vn 0 -1 0
vn 0 -1 0
vn 0 -1 0
vn 0 -1 0
vn 1 0 0
vn 1 0 0
vn 1 0 0
vn 1 0 0
vn -1 0 9.873498E-06
vn -1 0 9.873496E-06
vn -1 0 9.873498E-06
vn -1 0 9.873498E-06
vn -5.146725E-06 0 -1
vn -5.146725E-06 0 -1
vn -5.146725E-06 0 -1
vn -5.146726E-06 0 -1
vn -1 0 0
vn -1 0 0
vn -1 0 0
vn -1 0 0
vn -2.940986E-06 0 1
vn -2.940986E-06 0 1
vn -2.940986E-06 0 1
vn -2.940986E-06 0 1
vn 0 0 -1
vn 0 0 -1
vn 0 0 -1
vn 0 0 -1
g box1_0
f 3/3/3 2/2/2 1/1/1
f 6/6/6 5/5/5 4/4/4
f 9/9/9 8/8/8 7/7/7
f 12/12/12 11/11/11 10/10/10
f 15/15/15 14/14/14 13/13/13
f 18/18/18 17/17/17 16/16/16
f 21/21/21 20/20/20 19/19/19
f 24/24/24 23/23/23 22/22/22
f 27/27/27 26/26/26 25/25/25
f 30/30/30 29/29/29 28/28/28
f 33/33/33 32/32/32 31/31/31
f 36/36/36 35/35/35 34/34/34
f 39/39/39 38/38/38 37/37/37
f 42/42/42 41/41/41 40/40/40
f 45/45/45 44/44/44 43/43/43
f 48/48/48 47/47/47 46/46/46
f 51/51/51 50/50/50 49/49/49
f 54/54/54 53/53/53 52/52/52
f 57/57/57 56/56/56 55/55/55
f 60/60/60 59/59/59 58/58/58
f 63/63/63 62/62/62 61/61/61
f 66/66/66 65/65/65 64/64/64
f 69/69/69 68/68/68 67/67/67
f 72/72/72 71/71/71 70/70/70
f 75/75/75 74/74/74 73/73/73
f 78/78/78 77/77/77 76/76/76
f 81/81/81 80/80/80 79/79/79
f 81/81/81 82/82/82 80/80/80
f 85/85/85 84/84/84 83/83/83
f 83/83/83 86/86/86 85/85/85
f 89/89/89 88/88/88 87/87/87
f 88/88/88 89/89/89 90/90/90
f 93/93/93 92/92/92 91/91/91
f 91/91/91 94/94/94 93/93/93
f 97/97/97 96/96/96 95/95/95
f 99/99/99 95/95/95 98/98/98
f 97/97/97 100/100/100 98/98/98
f 98/98/98 101/101/101 99/99/99
f 100/100/100 97/97/97 102/102/102
f 102/102/102 99/99/99 101/101/101
f 102/102/102 103/103/103 100/100/100
f 101/101/101 103/103/103 102/102/102
f 106/106/106 105/105/105 104/104/104
f 105/105/105 106/106/106 107/107/107
f 110/110/110 109/109/109 108/108/108
f 111/111/111 108/108/108 109/109/109
f 114/114/114 113/113/113 112/112/112
f 114/114/114 115/115/115 113/113/113
f 118/118/118 117/117/117 116/116/116
f 117/117/117 118/118/118 119/119/119
f 122/122/122 121/121/121 120/120/120
f 120/120/120 123/123/123 122/122/122
f 126/126/126 125/125/125 124/124/124
f 124/124/124 127/127/127 126/126/126
f 130/130/130 129/129/129 128/128/128
f 130/130/130 131/131/131 129/129/129
f 134/134/134 133/133/133 132/132/132
f 132/132/132 135/135/135 134/134/134
f 138/138/138 137/137/137 136/136/136
f 136/136/136 139/139/139 138/138/138
f 142/142/142 141/141/141 140/140/140
f 140/140/140 143/143/143 142/142/142
f 146/146/146 145/145/145 144/144/144
f 144/144/144 147/147/147 146/146/146
f 150/150/150 149/149/149 148/148/148
f 148/148/148 151/151/151 150/150/150
f 154/154/154 153/153/153 152/152/152
f 154/154/154 155/155/155 153/153/153
f 158/158/158 157/157/157 156/156/156
f 158/158/158 159/159/159 157/157/157
f 162/162/162 161/161/161 160/160/160
f 161/161/161 162/162/162 163/163/163
f 166/166/166 165/165/165 164/164/164
f 164/164/164 167/167/167 166/166/166
f 170/170/170 169/169/169 168/168/168
f 168/168/168 171/171/171 170/170/170
f 174/174/174 173/173/173 172/172/172
f 175/175/175 172/172/172 173/173/173
f 173/173/173 176/176/176 175/175/175
f 175/175/175 176/176/176 177/177/177
f 177/177/177 178/178/178 175/175/175
f 178/178/178 177/177/177 179/179/179
f 172/172/172 180/180/180 179/179/179
f 179/179/179 180/180/180 178/178/178
f 183/183/183 182/182/182 181/181/181
f 181/181/181 184/184/184 183/183/183
f 187/187/187 186/186/186 185/185/185
f 185/185/185 188/188/188 187/187/187
f 191/191/191 190/190/190 189/189/189
f 191/191/191 192/192/192 190/190/190
f 195/195/195 194/194/194 193/193/193
f 193/193/193 196/196/196 195/195/195
f 199/199/199 198/198/198 197/197/197
f 197/197/197 200/200/200 199/199/199
f 203/203/203 202/202/202 201/201/201
f 201/201/201 204/204/204 203/203/203
f 207/207/207 206/206/206 205/205/205
f 205/205/205 208/208/208 207/207/207
f 211/211/211 210/210/210 209/209/209
f 209/209/209 212/212/212 211/211/211
f 215/215/215 214/214/214 213/213/213
f 213/213/213 216/216/216 215/215/215
f 219/219/219 218/218/218 217/217/217
f 217/217/217 220/220/220 219/219/219
f 223/223/223 222/222/222 221/221/221
f 221/221/221 224/224/224 223/223/223
f 227/227/227 226/226/226 225/225/225
f 227/227/227 228/228/228 226/226/226
