g box2_LOD1
v -0.503219 1.003217 0.5016226
v 0.503219 1.003217 0.5016226
v -0.503219 -0.004351425 0.5016226
v 0.503219 -0.004351425 0.5016226
v -0.503219 1.003217 -0.5016226
v 0.503219 1.003217 -0.5016226
v 0.503219 1.003217 0.5016226
v -0.503219 1.003217 0.5016226
v -0.503219 1.003217 -0.5016226
v -0.503219 1.003217 0.5016226
v -0.503219 -0.004351425 -0.5016226
v -0.503219 -0.004351425 0.5016226
v -0.503219 1.003217 -0.5016226
v -0.503219 -0.004351425 -0.5016226
v 0.503219 1.003217 -0.5016226
v 0.503219 -0.004351425 -0.5016226
v -0.503219 -0.004351425 -0.5016226
v -0.503219 -0.004351425 0.5016226
v 0.503219 -0.004351425 0.5016226
v 0.503219 -0.004351425 -0.5016226
v 0.503219 1.003217 -0.5016226
v 0.503219 -0.004351425 -0.5016226
v 0.503219 1.003217 0.5016226
v 0.503219 -0.004351425 0.5016226
vt 0.2648454 0.6798354
vt 0.5163834 0.6798372
vt 0.2648467 0.3973821
vt 0.516385 0.3973833
vt 0.994018 0.6645393
vt 0.994018 0.3910154
vt 0.7509317 0.3910154
vt 0.7509317 0.6645393
vt 0.2598497 0.6867478
vt 0.00737581 0.6867459
vt 0.2598457 0.9711523
vt 0.007372024 0.9711503
vt 0.5180557 0.9697636
vt 0.5180561 0.6873096
vt 0.2665178 0.9697629
vt 0.2665185 0.6873088
vt 0.9901846 0.6746067
vt 0.7470981 0.6746067
vt 0.7470981 0.9481304
vt 0.9901846 0.9481304
vt 0.2580589 0.6795385
vt 0.2580589 0.3951343
vt 0.005585014 0.6795385
vt 0.005585014 0.3951343
vn 0 0 1
vn 0 0 1
vn 0 0 1
vn 0 0 1
vn 0 1 0
vn 0 1 0
vn 0 1 0
vn 0 1 0
vn -1 0 0
vn -1 0 0
vn -1 0 0
vn -1 0 0
vn 0 0 -1
vn 0 0 -1
vn 0 0 -1
vn 0 0 -1
vn 0 -1 0
vn 0 -1 0
vn 0 -1 0
vn 0 -1 0
vn 1 0 0
vn 1 0 0
vn 1 0 0
vn 1 0 0
g box2_LOD1_0
f 3/3/3 2/2/2 1/1/1
f 3/3/3 4/4/4 2/2/2
f 7/7/7 6/6/6 5/5/5
f 5/5/5 8/8/8 7/7/7
f 11/11/11 10/10/10 9/9/9
f 11/11/11 12/12/12 10/10/10
f 15/15/15 14/14/14 13/13/13
f 16/16/16 14/14/14 15/15/15
f 19/19/19 18/18/18 17/17/17
f 17/17/17 20/20/20 19/19/19
f 23/23/23 22/22/22 21/21/21
f 24/24/24 22/22/22 23/23/23
