# Blender 4.0.2
# www.blender.org
o locobogie_LOD2
v 1.480000 2.500750 -3.200000
v -1.480000 2.500750 -2.034490
v -1.480000 2.500750 -3.200000
v 1.480000 2.500750 -2.034490
v -1.480000 2.500750 -1.017245
v 1.480000 2.500750 -1.017245
v -1.480000 2.500750 -0.000000
v 1.480000 2.500750 -0.000000
v -1.480000 2.500750 1.017245
v 1.480000 2.500750 1.017245
v -1.480000 2.500750 2.034490
v 1.480000 2.500750 2.034490
v -1.480000 2.500750 3.200000
v 1.480000 2.500750 3.200000
v -1.480000 1.544258 -3.200000
v 1.480000 1.544258 -3.200000
v 1.480000 2.500750 -3.200000
v -1.480000 2.500750 -3.200000
v 1.480000 1.544259 3.200000
v -1.480000 1.544259 3.200000
v -1.480000 2.500750 3.200000
v 1.480000 2.500750 3.200000
v -1.480000 1.300750 -2.034490
v -1.480000 1.544258 -3.200000
v -1.480000 2.500750 -3.200000
v -1.480000 2.500750 -2.034490
v -1.480000 1.628957 -1.017245
v -1.480000 2.500750 -1.017245
v -1.480000 1.300750 0.000000
v -1.480000 2.500750 -0.000000
v -1.480000 1.628957 1.017245
v -1.480000 2.500750 1.017245
v -1.480000 1.300750 2.034490
v -1.480000 2.500750 2.034490
v -1.480000 1.544259 3.200000
v -1.480000 2.500750 3.200000
v 1.480000 1.544258 -3.200000
v 1.480000 2.500750 -2.034490
v 1.480000 2.500750 -3.200000
v 1.480000 1.300750 -2.034490
v 1.480000 2.500750 -1.017245
v 1.480000 1.628957 -1.017245
v 1.480000 2.500750 -0.000000
v 1.480000 1.300750 0.000000
v 1.480000 2.500750 1.017245
v 1.480000 1.628957 1.017245
v 1.480000 2.500750 2.034490
v 1.480000 1.300750 2.034490
v 1.480000 2.500750 3.200000
v 1.480000 1.544259 3.200000
v -1.480000 1.300750 2.034490
v -1.480000 1.544259 3.200000
v 1.480000 1.544259 3.200000
v 1.480000 1.300750 2.034490
v -1.480000 1.544258 -3.200000
v -1.480000 1.300750 -2.034490
v 1.480000 1.300750 -2.034490
v 1.480000 1.544258 -3.200000
v 1.480000 1.628957 -1.017245
v 1.480000 1.300750 -2.034490
v -1.480000 1.300750 -2.034490
v -1.480000 1.628957 -1.017245
v 1.480000 1.628957 1.017245
v 1.480000 1.300750 0.000000
v -1.480000 1.300750 0.000000
v -1.480000 1.628957 1.017245
v 1.480000 1.300750 2.034490
v 1.480000 1.628957 1.017245
v -1.480000 1.628957 1.017245
v -1.480000 1.300750 2.034490
v 1.480000 1.300750 0.000000
v 1.480000 1.628957 -1.017245
v -1.480000 1.628957 -1.017245
v -1.480000 1.300750 0.000000
vn -0.0000 1.0000 -0.0000
vn -0.0000 -0.0000 -1.0000
vn -0.0000 -0.0000 1.0000
vn -1.0000 -0.0000 -0.0000
vn 1.0000 -0.0000 -0.0000
vn -0.0000 -0.9789 0.2045
vn -0.0000 -0.9789 -0.2045
vn -0.0000 -0.9517 0.3071
vn -0.0000 -0.9517 -0.3071
vt 0.769352 0.135574
vt 0.769352 0.133020
vt 0.774085 0.135574
vt 0.774085 0.133020
vt 0.769352 0.130791
vt 0.774085 0.130791
vt 0.769352 0.128562
vt 0.774085 0.128562
vt 0.769352 0.126334
vt 0.774085 0.126334
vt 0.769352 0.124104
vt 0.774085 0.124104
vt 0.769352 0.121551
vt 0.774085 0.121551
vt 0.773454 0.155389
vt 0.773454 0.158347
vt 0.766968 0.158347
vt 0.766968 0.155389
vt 0.773454 0.158347
vt 0.766968 0.158347
vt 0.735783 0.142929
vt 0.738314 0.142929
vt 0.738741 0.145483
vt 0.735783 0.145483
vt 0.737582 0.147712
vt 0.735783 0.147712
vt 0.738741 0.149941
vt 0.735783 0.149941
vt 0.737582 0.152169
vt 0.735783 0.152169
vt 0.738741 0.154398
vt 0.735783 0.154398
vt 0.738314 0.156952
vt 0.735783 0.156952
vt 0.735783 0.156952
vt 0.735783 0.154398
vt 0.735783 0.152169
vt 0.735783 0.149941
vt 0.735783 0.147712
vt 0.735783 0.145483
vt 0.735783 0.142929
vt 0.774085 0.118656
vt 0.769352 0.118656
vt 0.769352 0.116103
vt 0.774085 0.116103
vt 0.774085 0.107187
vt 0.769352 0.107187
vt 0.769352 0.104633
vt 0.774085 0.104633
vt 0.774085 0.109416
vt 0.769352 0.109416
vt 0.769352 0.111645
vt 0.774085 0.111645
vt 0.774085 0.113873
vt 0.769352 0.113873
s 0
f 3/1/1 2/2/1 1/3/1
f 2/2/1 4/4/1 1/3/1
f 4/4/1 2/2/1 5/5/1
f 6/6/1 4/4/1 5/5/1
f 6/6/1 5/5/1 7/7/1
f 8/8/1 6/6/1 7/7/1
f 8/8/1 7/7/1 9/9/1
f 10/10/1 8/8/1 9/9/1
f 10/10/1 9/9/1 11/11/1
f 12/12/1 10/10/1 11/11/1
f 11/11/1 13/13/1 12/12/1
f 13/13/1 14/14/1 12/12/1
f 17/15/2 16/16/2 15/17/2
f 18/18/2 17/15/2 15/17/2
f 21/15/3 20/19/3 19/20/3
f 22/18/3 21/15/3 19/20/3
f 25/21/4 24/22/4 23/23/4
f 26/24/4 25/21/4 23/23/4
f 23/23/4 27/25/4 26/24/4
f 27/25/4 28/26/4 26/24/4
f 27/25/4 29/27/4 28/26/4
f 29/27/4 30/28/4 28/26/4
f 29/27/4 31/29/4 30/28/4
f 31/29/4 32/30/4 30/28/4
f 31/29/4 33/31/4 32/30/4
f 33/31/4 34/32/4 32/30/4
f 34/32/4 33/31/4 35/33/4
f 36/34/4 34/32/4 35/33/4
f 39/35/5 38/36/5 37/33/5
f 38/36/5 40/31/5 37/33/5
f 40/31/5 38/36/5 41/37/5
f 42/29/5 40/31/5 41/37/5
f 42/29/5 41/37/5 43/38/5
f 44/27/5 42/29/5 43/38/5
f 44/27/5 43/38/5 45/39/5
f 46/25/5 44/27/5 45/39/5
f 46/25/5 45/39/5 47/40/5
f 48/23/5 46/25/5 47/40/5
f 47/40/5 49/41/5 48/23/5
f 49/41/5 50/22/5 48/23/5
f 53/42/6 52/43/6 51/44/6
f 54/45/6 53/42/6 51/44/6
f 57/46/7 56/47/7 55/48/7
f 58/49/7 57/46/7 55/48/7
f 61/47/8 60/46/8 59/50/8
f 62/51/8 61/47/8 59/50/8
f 65/52/8 64/53/8 63/54/8
f 66/55/8 65/52/8 63/54/8
f 69/55/9 68/54/9 67/45/9
f 70/44/9 69/55/9 67/45/9
f 73/51/9 72/50/9 71/53/9
f 74/52/9 73/51/9 71/53/9
