# Blender 4.0.2
# www.blender.org
o forklift_LOD2
v -0.655575 2.016124 -1.165634
v -0.684461 1.267625 -0.764769
v -0.661769 1.280107 -1.154693
v -0.680422 2.019165 -0.763580
v -0.651253 2.345132 -1.173269
v -0.677604 2.359004 -0.762750
v -0.655575 2.016124 -1.165634
v 0.655147 2.345132 -1.174353
v -0.651253 2.345132 -1.173269
v 0.657869 2.016124 -1.166718
v -0.661769 1.280107 -1.154693
v 0.661769 1.280107 -1.155777
v 0.683232 2.020588 -0.763580
v 0.661769 1.280107 -1.155777
v 0.684682 1.267625 -0.764769
v 0.657869 2.016124 -1.166718
v 0.682221 2.361421 -0.762750
v 0.655147 2.345132 -1.174353
v -0.677604 2.359004 -0.762750
v -0.651253 2.345132 -1.173269
v 0.655147 2.345132 -1.174353
v 0.682221 2.361421 -0.762750
v -0.680422 2.019165 -0.763580
v -0.680422 2.019165 0.805531
v -0.684461 1.267625 0.804341
v -0.684461 1.267625 -0.764769
v 0.684682 1.267625 -0.764769
v 0.684682 1.267625 0.804341
v 0.683232 2.020588 0.805531
v 0.683232 2.020588 -0.763580
v -0.677604 2.359004 -0.762750
v -0.677604 2.359004 0.806360
v -0.680422 2.019165 0.805531
v -0.680422 2.019165 -0.763580
v 0.683232 2.020588 -0.763580
v 0.683232 2.020588 0.805531
v 0.682221 2.361422 0.806360
v 0.682221 2.361421 -0.762750
v 0.682221 2.361421 -0.762750
v 0.682221 2.361422 0.806360
v -0.677604 2.359004 0.806360
v -0.677604 2.359004 -0.762750
v -0.553401 1.260798 0.869834
v -0.553401 3.498439 0.869834
v -0.553401 3.498439 1.071445
v -0.553401 1.260798 1.071445
v 0.553370 1.260798 0.869834
v -0.553401 1.260798 0.869834
v -0.553401 1.260798 1.071445
v 0.553370 1.260798 1.071445
v 0.553370 1.260798 1.071445
v 0.553370 3.498439 1.071445
v 0.553370 3.498439 0.869834
v 0.553370 1.260798 0.869834
v 0.553370 3.498439 0.869834
v 0.553370 3.498439 1.071445
v -0.553401 3.498439 1.071445
v -0.553401 3.498439 0.869834
v 0.553370 3.498439 0.869834
v -0.553401 3.498439 0.869834
v -0.553401 1.260798 0.869834
v 0.553370 1.260798 0.869834
v 0.553370 1.260798 1.071445
v -0.553401 1.260798 1.071445
v -0.553401 3.498439 1.071445
v 0.553370 3.498439 1.071445
v 0.746347 1.255554 1.112624
v 0.746347 2.010604 1.112104
v -0.733500 2.010604 1.112104
v -0.733500 1.255554 1.112624
v -0.733500 1.255554 1.112624
v -0.732231 1.257313 1.254323
v 0.746347 1.255554 1.252418
v 0.746347 1.255554 1.112624
v 0.746347 2.010604 1.112104
v 0.746347 2.010601 1.252946
v -0.733500 2.010601 1.252946
v -0.733500 2.010604 1.112104
v -0.733500 1.255554 1.112624
v -0.733500 2.010604 1.112104
v -0.733500 2.010601 1.252946
v -0.732231 1.257313 1.254323
v 0.746347 1.255554 1.252418
v 0.746347 2.010601 1.252946
v 0.746347 2.010604 1.112104
v 0.746347 1.255554 1.112624
v -0.732231 1.257313 1.254323
v -0.733500 2.010601 1.252946
v 0.746347 2.010601 1.252946
v 0.746347 1.255554 1.252418
v 0.684682 1.267625 0.804341
v -0.684461 1.267625 0.804341
v -0.680422 2.019165 0.805531
v 0.683232 2.020588 0.805531
v -0.677604 2.359004 0.806360
v 0.682221 2.361422 0.806360
v 0.683232 2.020588 0.805531
v -0.680422 2.019165 0.805531
v -0.723031 1.763048 0.589156
v -0.652001 3.255368 0.352325
v -0.652009 3.305771 0.446834
v -0.722903 1.763048 0.703410
v 0.665616 2.004833 -0.745256
v 0.665611 2.004833 -0.597973
v 0.649517 3.250306 -0.591266
v 0.649513 3.250306 -0.705670
v 0.656674 3.305771 0.446834
v 0.656667 3.257375 0.353968
v 0.722933 1.763048 0.591705
v 0.722809 1.763048 0.703395
v -0.663455 3.206575 0.474413
v -0.679605 3.206576 -0.714140
v -0.679605 3.322926 -0.714140
v -0.663455 3.322925 0.474413
v -0.654137 3.250306 -0.702531
v -0.654137 3.250306 -0.594584
v -0.669273 2.004833 -0.601145
v -0.669277 2.004833 -0.741763
v 0.671788 3.322926 -0.714140
v 0.671788 3.206576 -0.714140
v 0.655638 3.206575 0.474413
v 0.655638 3.322925 0.474413
v -0.663455 3.206575 0.474413
v -0.663455 3.322925 0.474413
v 0.655638 3.322925 0.474413
v 0.655638 3.206575 0.474413
v -0.679605 3.206576 -0.714140
v 0.671788 3.206576 -0.714140
v 0.671788 3.322926 -0.714140
v -0.679605 3.322926 -0.714140
v -0.419524 1.268779 2.149005
v -0.419524 1.280371 1.261554
v -0.276964 1.280371 1.261554
v -0.276964 1.268779 2.149005
v 0.326411 1.268779 2.149005
v 0.326411 1.280371 1.261554
v 0.468971 1.280371 1.261554
v 0.468971 1.268779 2.149005
vn -0.6979 -0.0055 -0.7162
vn -0.9982 0.0065 -0.0598
vn -0.6868 -0.0074 -0.7268
vn -0.9982 0.0065 -0.0599
vn -0.9981 0.0083 -0.0615
vn -0.6868 -0.0073 -0.7268
vn -0.6840 -0.0090 -0.7294
vn -0.9980 0.0100 -0.0631
vn -0.6841 -0.0090 -0.7294
vn -0.6841 -0.0091 -0.7294
vn 0.6853 -0.0124 -0.7281
vn 0.6856 -0.0102 -0.7279
vn -0.6978 -0.0055 -0.7162
vn 0.6962 -0.0078 -0.7178
vn 0.9982 0.0032 -0.0606
vn 0.9980 0.0040 -0.0625
vn 0.9980 0.0044 -0.0628
vn 0.9979 0.0049 -0.0643
vn 0.6853 -0.0125 -0.7281
vn 0.9979 0.0049 -0.0644
vn -0.0009 0.9993 -0.0367
vn -0.0009 0.9993 -0.0366
vn -1.0000 0.0054 -0.0000
vn -1.0000 0.0069 -0.0000
vn -1.0000 0.0068 -0.0000
vn 1.0000 0.0024 -0.0000
vn 1.0000 0.0019 -0.0000
vn -0.7042 0.7100 -0.0000
vn -0.7054 0.7088 -0.0000
vn -0.7054 0.7088 0.0001
vn 0.7049 0.7093 0.0001
vn 1.0000 0.0025 -0.0000
vn 0.7060 0.7082 -0.0000
vn 0.7049 0.7093 -0.0000
vn -1.0000 -0.0000 -0.0000
vn -0.0000 -1.0000 -0.0000
vn 1.0000 -0.0000 -0.0000
vn -0.0000 1.0000 -0.0000
vn -0.0000 -0.0000 -1.0000
vn -0.0000 -0.0000 1.0000
vn -0.0000 -0.0007 -1.0000
vn -0.0006 -1.0000 0.0063
vn -1.0000 -0.0008 0.0045
vn 0.0007 0.0005 1.0000
vn -0.0000 -0.0022 1.0000
vn -0.0000 -0.0016 1.0000
vn -0.0000 -0.0021 1.0000
vn -0.0000 -0.0020 1.0000
vn -0.0000 -0.0024 1.0000
vn -0.9989 0.0450 -0.0103
vn 0.9999 0.0129 -0.0000
vn 0.9991 0.0420 -0.0094
vn -0.7119 -0.0000 -0.7023
vn -0.7023 -0.0000 0.7119
vn -0.7023 0.0003 0.7119
vn -0.9999 0.0122 -0.0000
vn 0.7023 -0.0000 0.7119
vn 0.9999 -0.0000 0.0136
vn 0.7023 -0.0002 0.7119
vn -0.7023 0.0002 0.7119
vn -0.7119 0.0001 -0.7023
vn -0.0000 0.9999 0.0131
vt -0.036083 0.202320
vt -0.036403 0.238840
vt 0.057671 0.202130
vt 0.059184 0.239450
vt 0.095618 0.201998
vt 0.098410 0.239875
vt 0.095696 0.041334
vt 0.057755 0.041338
vt -0.035993 0.041345
vt -0.035868 0.003857
vt 0.059413 0.003744
vt 0.098425 0.003665
vt 0.084327 0.042110
vt 0.084187 0.199464
vt 0.034712 0.202635
vt 0.034712 0.038846
vt 0.025431 0.073801
vt 0.081645 0.074411
vt 0.081645 0.212106
vt 0.025431 0.211496
vt 0.081645 0.074297
vt 0.025737 0.074411
vt 0.025737 0.212106
vt 0.081645 0.211993
vt 0.521914 0.522830
vt 0.521900 0.517290
vt 0.547475 0.517290
vt 0.547488 0.522830
vt 0.521900 0.495127
vt 0.521914 0.489572
vt 0.547488 0.489572
vt 0.547475 0.495127
vt 0.197607 0.267511
vt 0.181983 0.267511
vt 0.181983 0.109143
vt 0.197607 0.109143
vt 0.181983 0.123412
vt 0.267752 0.109143
vt 0.267752 0.123412
vt 0.197607 0.267510
vt 0.181983 0.267510
vt 0.267752 0.267511
vt 0.181983 0.267511
vt 0.267752 0.267511
vt 0.136308 0.230859
vt 0.300051 0.230859
vt 0.300051 0.138349
vt 0.136308 0.138349
vt 0.229939 0.202185
vt 0.204201 0.202185
vt 0.204201 0.219955
vt 0.229939 0.219955
vt 0.230201 0.202185
vt 0.204201 0.219935
vt 0.230201 0.219935
vt 0.164319 0.138489
vt 0.136221 0.138479
vt 0.136746 0.231889
vt 0.166158 0.231679
vt 0.166683 0.138169
vt 0.138584 0.138179
vt 0.139285 0.231679
vt 0.300051 0.230879
vt 0.136221 0.230879
vt 0.042583 0.074411
vt -0.015585 0.073801
vt -0.015278 0.162301
vt 0.042583 0.162188
vt 0.077880 0.023997
vt 0.077860 0.034614
vt 0.035500 0.034583
vt 0.035401 0.023997
vt 0.263740 0.610180
vt 0.262810 0.618320
vt 0.440280 0.618320
vt 0.441140 0.610180
vt 0.642090 0.002535
vt 0.634895 0.150480
vt 0.650670 0.146165
vt 0.650835 0.003105
vt 0.440180 0.618080
vt 0.262810 0.618080
vt 0.441140 0.610180
vt 0.612460 0.346880
vt 0.619670 0.346880
vt 0.619670 0.230105
vt 0.612460 0.230105
vt 0.635440 0.150320
vt 0.642750 0.002570
vt 0.650180 0.003090
vt 0.650150 0.146180
vt 0.619670 0.118955
vt 0.619670 0.002200
vt 0.612460 0.002200
vt 0.612460 0.118955
vt 0.759100 0.584250
vt 0.751020 0.584250
vt 0.751020 0.446460
vt 0.759100 0.446460
vt 0.913940 0.219340
vt 0.897900 0.219340
vt 0.897900 0.130100
vt 0.913940 0.130100
vt 0.897890 0.236980
vt 0.913940 0.236980
vt 0.913940 0.326230
vt 0.897890 0.326230
s 0
f 3/1/1 2/2/2 1/3/3
f 2/2/4 4/4/5 1/3/6
f 1/3/6 4/4/5 5/5/7
f 4/4/5 6/6/8 5/5/9
f 9/5/10 8/7/11 7/3/6
f 8/7/11 10/8/12 7/3/6
f 7/3/3 10/8/12 11/1/13
f 10/8/12 12/9/14 11/1/13
f 15/10/15 14/9/14 13/11/16
f 14/9/14 16/8/12 13/11/17
f 13/11/16 16/8/12 17/12/18
f 16/8/12 18/7/19 17/12/20
f 21/13/21 20/14/21 19/15/21
f 22/16/22 21/13/22 19/15/22
f 25/17/23 24/18/24 23/19/24
f 26/20/23 25/17/23 23/19/25
f 29/21/26 28/22/27 27/23/27
f 30/24/26 29/21/26 27/23/27
f 33/25/24 32/26/28 31/27/29
f 34/28/25 33/25/25 31/27/30
f 37/29/31 36/30/32 35/31/32
f 38/32/33 37/29/34 35/31/32
f 41/26/28 40/29/34 39/32/33
f 42/27/29 41/26/28 39/32/33
f 45/33/35 44/34/35 43/35/35
f 46/36/35 45/33/35 43/35/35
f 49/37/36 48/35/36 47/38/36
f 50/39/36 49/37/36 47/38/36
f 53/40/37 52/41/37 51/35/37
f 54/36/37 53/40/37 51/35/37
f 57/35/38 56/38/38 55/39/38
f 58/37/38 57/35/38 55/39/38
f 61/38/39 60/42/39 59/43/39
f 62/35/39 61/38/39 59/43/39
f 65/43/40 64/35/40 63/38/40
f 66/44/40 65/43/40 63/38/40
f 69/45/41 68/46/41 67/47/41
f 70/48/41 69/45/41 67/47/41
f 73/49/42 72/50/42 71/51/42
f 74/52/42 73/49/42 71/51/42
f 77/53/38 76/50/38 75/54/38
f 78/55/38 77/53/38 75/54/38
f 81/56/43 80/57/43 79/58/43
f 82/59/43 81/56/43 79/58/43
f 85/60/37 84/61/37 83/62/37
f 86/59/37 85/60/37 83/62/37
f 89/63/44 88/64/44 87/57/44
f 90/47/44 89/63/44 87/57/44
f 93/65/45 92/66/46 91/67/46
f 94/68/47 93/65/47 91/67/46
f 97/69/48 96/70/49 95/71/49
f 98/72/48 97/69/48 95/71/49
f 101/73/50 100/74/50 99/75/50
f 102/76/50 101/73/50 99/75/50
f 105/77/51 104/78/51 103/79/51
f 106/80/51 105/77/51 103/79/51
f 109/81/52 108/82/52 107/73/52
f 110/83/52 109/81/52 107/73/52
f 113/84/53 112/85/53 111/86/54
f 114/87/55 113/84/53 111/86/54
f 117/88/56 116/89/56 115/90/56
f 118/91/56 117/88/56 115/90/56
f 121/92/57 120/93/58 119/94/58
f 122/95/57 121/92/57 119/94/58
f 125/95/59 124/87/54 123/86/54
f 126/92/57 125/95/57 123/86/60
f 129/96/39 128/97/39 127/98/61
f 130/99/53 129/96/39 127/98/53
f 133/100/62 132/101/62 131/102/62
f 134/103/62 133/100/62 131/102/62
f 137/104/62 136/105/62 135/106/62
f 138/107/62 137/104/62 135/106/62
