# Blender 4.0.2
# www.blender.org
o straps
v 0.025901 2.078498 -0.654063
v -0.673638 2.014260 -0.544831
v 1.467748 1.157659 -1.049438
v -0.662009 2.074744 -0.627701
v -0.680554 2.029224 -0.539815
v -0.686168 2.074428 -0.621682
v -0.697190 2.017944 -0.544760
v 0.656419 2.092557 -0.617124
v 0.675029 2.028236 -0.536107
v 0.695248 2.014663 -0.540095
v 1.047355 1.661790 -0.816348
v -0.668041 2.034135 -0.537648
v -1.030399 1.629706 -0.728616
v -1.042445 1.637942 -0.720879
v -0.656883 2.091514 -0.615900
v -0.669554 2.085566 -0.616525
v -1.042445 1.668571 -0.816307
v -1.030399 1.660335 -0.824044
v 0.668406 2.086288 -0.618540
v 0.688394 2.074736 -0.625396
v 1.037946 1.653525 -0.823967
v 0.663031 2.034600 -0.534827
v 1.047355 1.630436 -0.721156
v 0.672113 2.013305 -0.541764
v 0.665528 2.071018 -0.623715
v 0.025968 2.098268 -0.649302
v 0.025968 2.074802 -0.551864
v 0.025901 2.055032 -0.556626
v 1.037946 1.622171 -0.728774
v 1.413799 1.080374 -0.949437
v 1.467746 1.157660 -0.949437
v 1.487743 1.093091 -0.949437
v 1.413799 1.080374 -1.049438
v 1.413799 1.150376 -1.049438
v 1.481885 1.078949 -1.049438
v 1.487743 1.164726 -1.049438
v 1.487743 1.093091 -1.049438
v 1.487743 1.164726 -0.949437
v 1.481885 1.078949 -0.949437
v 1.467743 1.073092 -0.949437
v 1.467743 1.073092 -1.049438
v 1.413799 1.150376 -0.949437
v -1.413799 1.080374 -0.949437
v -1.413799 1.150376 -0.949437
v -1.467743 1.073092 -0.949437
v -1.487743 1.093091 -0.949437
v -1.413799 1.080374 -1.049438
v -1.467743 1.073092 -1.049438
v -1.487743 1.161564 -1.049438
v -1.487743 1.161564 -0.949437
v -1.487743 1.093091 -1.049438
v -1.481885 1.078949 -0.949437
v -1.481885 1.078949 -1.049438
v -1.413799 1.150376 -1.049438
v -1.467748 1.157659 -1.049438
v -1.467748 1.157660 -0.949437
v -0.544109 2.049777 -0.532942
v -0.544109 2.073244 -0.630379
v -0.540927 2.092936 -0.625636
v 0.544112 2.072793 -0.632058
v -0.540927 2.069470 -0.528199
v 0.538816 2.092640 -0.627278
v 0.544112 2.049327 -0.534621
v 0.538816 2.069174 -0.529841
v 0.025901 1.897699 0.757202
v -0.589048 1.906467 0.851527
v 1.467748 1.157659 0.949838
v -0.616178 1.892147 0.756115
v -0.594400 1.921910 0.853908
v -0.638881 1.896534 0.761912
v -0.611751 1.910854 0.857325
v 0.592328 1.910464 0.756105
v 0.584941 1.920102 0.855645
v 0.602737 1.908869 0.858940
v 0.974704 1.595744 0.837468
v -0.576418 1.926436 0.849814
v -0.952989 1.612598 0.936662
v -0.970131 1.627509 0.932748
v -0.603549 1.912116 0.754402
v -0.621531 1.907590 0.758495
v -0.970131 1.602069 0.835808
v -0.952989 1.587159 0.839721
v 0.611437 1.905781 0.760054
v 0.629233 1.894549 0.763349
v 0.959155 1.579694 0.841680
v 0.565832 1.924784 0.851696
v 0.974704 1.621184 0.934408
v 0.580593 1.904500 0.853457
v 0.607089 1.890179 0.757866
v 0.025968 1.917825 0.754297
v 0.025968 1.932145 0.853491
v 0.025901 1.912019 0.856397
v 0.959155 1.605134 0.938620
v 1.413799 1.080374 1.049838
v 1.467746 1.157659 1.049838
v 1.487743 1.093091 1.049838
v 1.413799 1.080374 0.949838
v 1.413799 1.150376 0.949838
v 1.481885 1.078949 0.949838
v 1.487743 1.093091 0.949838
v 1.481885 1.078949 1.049838
v 1.467743 1.073091 1.049838
v 1.467743 1.073091 0.949838
v 1.413799 1.150376 1.049838
v -1.413799 1.080374 1.049838
v -1.413799 1.150376 1.049838
v -1.467743 1.073091 1.049838
v -1.487743 1.093091 1.049838
v -1.413799 1.080374 0.949838
v -1.467743 1.073091 0.949838
v -1.487743 1.093091 0.949838
v -1.481885 1.078949 1.049838
v -1.481885 1.078949 0.949838
v -1.413799 1.150376 0.949838
v -1.467748 1.157659 0.949838
v -1.467748 1.157659 1.049838
v 1.472280 1.191299 0.949844
v 1.487743 1.158148 0.949838
v 1.486555 1.158183 0.949838
v 1.473711 1.163824 0.949838
v 1.487743 1.158148 1.049838
v 1.472280 1.191299 1.049851
v 1.473710 1.163825 1.049838
v -1.487743 1.158148 0.949838
v -1.472319 1.191346 0.949844
v -1.473711 1.163824 0.949838
v -1.486555 1.158183 0.949838
v -1.472319 1.191347 1.049851
v -1.487743 1.158148 1.049838
v -1.486555 1.158183 1.049838
v -1.473711 1.163824 1.049838
v 0.611960 1.198256 -0.852611
v 0.611960 1.198256 -0.945888
v 0.611960 1.272694 -0.928480
v 0.697606 1.198256 -0.852611
v 0.697606 1.198256 -0.945888
v 0.697606 1.272694 -0.928480
v 0.697606 1.198256 -0.726598
v 0.697606 1.198256 -0.633321
v 0.697606 1.272694 -0.650729
v 0.611960 1.198256 -0.726598
v 0.611960 1.198256 -0.633321
v 0.611960 1.272694 -0.650729
v 0.697606 1.198256 0.725088
v 0.697606 1.198256 0.818365
v 0.697606 1.272694 0.800957
v 0.611960 1.198256 0.725088
v 0.611960 1.198256 0.818365
v 0.611960 1.272694 0.800957
v 0.611960 1.198256 0.514882
v 0.611960 1.198256 0.421605
v 0.611960 1.272694 0.439012
v 0.697606 1.198256 0.514882
v 0.697606 1.198256 0.421605
v 0.697606 1.272694 0.439012
v -0.611960 1.198256 -0.852611
v -0.611960 1.198256 -0.945888
v -0.611960 1.272694 -0.928480
v -0.697606 1.198256 -0.852611
v -0.697606 1.198256 -0.945888
v -0.697606 1.272694 -0.928480
v -0.697606 1.198256 -0.726598
v -0.697606 1.198256 -0.633321
v -0.697606 1.272694 -0.650729
v -0.611960 1.198256 -0.726598
v -0.611960 1.198256 -0.633321
v -0.611960 1.272694 -0.650729
v -0.697606 1.198256 0.725088
v -0.697606 1.198256 0.818365
v -0.697606 1.272694 0.800957
v -0.611960 1.198256 0.725088
v -0.611960 1.198256 0.818365
v -0.611960 1.272694 0.800957
v -0.611960 1.198256 0.514882
v -0.611960 1.198256 0.421605
v -0.611960 1.272694 0.439012
v -0.697606 1.198256 0.514882
v -0.697606 1.198256 0.421605
v -0.697606 1.272694 0.439012
vn -0.1762 -0.5491 0.8170
vn -0.0409 -0.4334 0.9003
vn -0.0476 -0.3692 0.9281
vn 0.1622 -0.5351 0.8291
vn -0.0533 -0.3752 0.9254
vn 0.1629 -0.5354 0.8288
vn 0.7562 -0.6541 -0.0153
vn 0.7651 -0.6139 -0.1942
vn 0.7637 -0.6147 -0.1973
vn -0.0425 0.1247 -0.9913
vn 0.1864 0.5390 -0.8214
vn -0.0594 0.1682 -0.9840
vn 0.0040 0.9722 0.2341
vn 0.0006 0.9722 0.2341
vn 0.7505 0.6607 0.0157
vn 0.7648 0.6125 0.2000
vn 0.7637 0.6132 0.2020
vn 0.0659 0.2545 -0.9648
vn 0.0657 0.3126 -0.9476
vn -0.0423 0.3304 -0.9429
vn -0.0479 -0.3237 0.9450
vn -0.0347 -0.2465 0.9685
vn -0.7532 0.6576 0.0151
vn -0.7665 0.6124 0.1934
vn -0.7514 0.6599 -0.0000
vn 0.0273 0.1462 -0.9889
vn -0.1667 0.5315 -0.8305
vn -0.1696 0.5324 -0.8293
vn -0.2032 0.5823 -0.7872
vn -0.1466 0.5964 -0.7892
vn -0.0580 -0.9495 -0.3085
vn -0.1540 -0.8912 -0.4268
vn -0.2554 -0.8000 -0.5429
vn -0.2528 0.8478 0.4661
vn -0.0573 0.9491 0.3097
vn -0.1338 0.9910 -0.0000
vn -0.4755 0.7403 0.4752
vn -0.3345 0.7820 0.5260
vn 0.7782 -0.5595 -0.2851
vn -0.0000 -0.0000 -1.0000
vn 0.4985 0.7271 0.4720
vn 0.3629 0.7753 0.5169
vn 0.5127 0.7208 0.4664
vn -0.7649 -0.6124 -0.1995
vn -0.7772 -0.5490 -0.3075
vn -0.7781 -0.5413 -0.3187
vn -0.0055 -0.3334 0.9428
vn -0.0411 -0.3345 0.9415
vn -0.0332 -0.3513 0.9357
vn 0.0441 -0.1292 0.9906
vn -0.1753 -0.5482 0.8178
vn -0.2216 0.6215 -0.7514
vn -0.0991 0.5729 -0.8136
vn -0.7575 -0.6526 -0.0159
vn -0.7557 -0.6550 -0.0000
vn -0.0159 0.3236 -0.9460
vn -0.1209 0.3400 -0.9326
vn -0.0677 -0.3419 0.9373
vn 0.1863 0.5384 -0.8219
vn 0.0521 0.9490 0.3111
vn 0.2774 0.8432 0.4604
vn -0.0090 0.9722 0.2341
vn 0.0007 0.2344 -0.9722
vn 0.0606 0.2488 -0.9667
vn -0.0381 -0.2434 0.9692
vn -0.0007 -0.2344 0.9722
vn 0.0227 -0.2375 0.9711
vn 0.0138 -0.2410 0.9704
vn -0.0008 -0.9722 -0.2341
vn 0.0005 -0.9722 -0.2341
vn -0.0613 0.2430 -0.9681
vn -0.0614 0.2636 -0.9627
vn 0.1560 -0.8900 -0.4285
vn 0.0576 -0.9486 -0.3111
vn 0.2680 -0.7957 -0.5431
vn 0.6935 0.6182 0.3700
vn -0.0000 -0.0000 1.0000
vn 0.0602 -0.1704 0.9835
vn -0.7073 0.6176 0.3440
vn -0.6808 0.6335 0.3677
vn -0.9808 -0.1951 -0.0000
vn -1.0000 -0.0000 -0.0000
vn -0.5071 0.7277 0.4618
vn 0.9808 -0.1951 -0.0000
vn 1.0000 -0.0000 -0.0000
vn 0.6682 0.6325 0.3917
vn -0.0284 -0.1518 0.9880
vn -0.0322 -0.1650 0.9858
vn 0.0317 0.1626 -0.9862
vn -0.9239 -0.3827 -0.0000
vn 0.1338 0.9910 -0.0000
vn 0.9239 -0.3827 -0.0000
vn -0.3827 -0.9239 -0.0000
vn 0.1338 -0.9910 -0.0000
vn 0.3827 -0.9239 -0.0000
vn -0.0091 -0.9722 -0.2341
vn -0.1338 -0.9910 -0.0000
vn 0.7544 -0.6564 -0.0000
vn 0.7485 0.6631 -0.0000
vn -0.7657 0.6124 0.1966
vn 0.7793 -0.5532 -0.2944
vn -0.7631 -0.6138 -0.2022
vn 0.0008 0.2341 -0.9722
vn -0.0008 -0.2341 0.9722
vn -0.6587 -0.7462 0.0964
vn -0.6537 -0.7523 0.0819
vn 0.9763 0.2165 -0.0000
vn 0.0329 0.0382 0.9987
vn 0.0409 0.0473 0.9980
vn 0.0001 -0.0002 1.0000
vn -0.7922 0.6081 -0.0522
vn -0.8065 0.5894 -0.0467
vn -0.6519 0.7540 -0.0810
vn 0.6463 0.7585 -0.0835
vn 0.5925 0.8051 -0.0291
vn 0.5824 0.8126 -0.0207
vn 0.8052 0.5911 -0.0468
vn 0.7908 0.6098 -0.0523
vn -0.0011 0.1169 0.9931
vn 0.0571 0.0692 0.9960
vn 0.1750 -0.0087 0.9845
vn -0.0000 0.0001 -1.0000
vn -0.0409 -0.0474 -0.9980
vn -0.0333 -0.0387 -0.9987
vn 0.0333 -0.0386 -0.9987
vn -0.0001 -0.0001 1.0000
vn -0.0408 0.0470 0.9981
vn -0.0329 0.0381 0.9987
vn 0.0081 -0.9895 0.1445
vn -0.0024 -0.9896 0.1441
vn -0.5988 0.8005 -0.0243
vn -0.5883 0.8085 -0.0160
vn -0.3907 0.9201 -0.0270
vn -0.4112 0.9113 -0.0199
vn 0.6589 -0.7480 0.0794
vn 0.6571 -0.7512 0.0626
vn 0.6605 -0.7446 0.0962
vn 0.3851 0.9223 -0.0314
vn 0.4073 0.9130 -0.0239
vn 0.1483 0.9833 -0.1058
vn 0.1201 0.9862 -0.1140
vn -0.6485 -0.7582 0.0673
vn 0.2360 -0.0676 0.9694
vn 0.2377 -0.0279 0.9709
vn 0.0548 0.1939 0.9795
vn 0.0605 0.1870 0.9805
vn -0.1743 0.0076 -0.9847
vn -0.2360 0.0676 -0.9694
vn -0.0617 -0.0677 -0.9958
vn -0.2402 0.0387 -0.9700
vn -0.0647 -0.1861 -0.9804
vn -0.0543 -0.1989 -0.9785
vn 0.0540 -0.0691 -0.9961
vn 0.2225 0.0743 -0.9721
vn 0.1742 0.0132 -0.9846
vn 0.2319 0.0205 -0.9725
vn 0.0540 -0.1864 -0.9810
vn 0.0534 -0.1869 -0.9809
vn -0.1676 -0.0171 0.9857
vn -0.2225 -0.0743 0.9721
vn -0.0490 0.0709 0.9963
vn -0.2304 -0.0517 0.9717
vn -0.0641 0.1900 0.9797
vn -0.0587 0.1973 0.9786
vn 0.0012 -0.1147 -0.9934
vn -0.1502 0.9832 -0.1041
vn -0.1210 0.9862 -0.1127
vn 0.0022 0.9896 -0.1441
vn -0.0128 -0.9895 0.1438
vn -0.0945 0.1093 0.9895
vn 0.0945 -0.1094 -0.9895
vn 0.0409 -0.0472 -0.9981
vn -0.0946 -0.1099 -0.9894
vn 0.0946 0.1098 0.9894
vn -0.9764 0.2158 -0.0000
vn -0.9765 0.2157 -0.0000
vn -0.0000 0.2277 -0.9737
vn -0.0000 0.7138 0.7003
vn -0.0000 0.2277 0.9737
vn -0.0000 0.7138 -0.7003
vt 0.678223 0.274902
vt 0.684570 0.480713
vt 0.677897 0.480450
vt 0.672852 0.275147
vt 0.666016 0.483398
vt 0.666992 0.272461
vt 0.665039 0.331055
vt 0.686523 0.493164
vt 0.665039 0.493164
vt 0.685059 0.323486
vt 0.679199 0.480713
vt 0.679688 0.322754
vt 0.678711 0.369019
vt 0.657715 0.250732
vt 0.678711 0.250732
vt 0.665527 0.336670
vt 0.686523 0.494629
vt 0.665527 0.494629
vt 0.665039 0.380127
vt 0.658301 0.261723
vt 0.665039 0.262451
vt 0.677645 0.262503
vt 0.670898 0.380127
vt 0.671339 0.262280
vt 0.686035 0.336914
vt 0.664551 0.497315
vt 0.664551 0.336914
vt 0.666504 0.323975
vt 0.671875 0.483398
vt 0.665527 0.486084
vt 0.679688 0.275147
vt 0.686035 0.483398
vt 0.678711 0.482910
vt 0.686035 0.369629
vt 0.664551 0.251953
vt 0.685192 0.251953
vt 0.678711 0.487305
vt 0.657715 0.369019
vt 0.682617 0.259033
vt 0.659668 0.271240
vt 0.682617 0.271240
vt 0.658054 0.490967
vt 0.677514 0.494873
vt 0.657227 0.494873
vt 0.679199 0.286377
vt 0.658203 0.494141
vt 0.658203 0.286377
vt 0.672852 0.260986
vt 0.685059 0.277832
vt 0.672852 0.279541
vt 0.679796 0.489746
vt 0.659831 0.493652
vt 0.659034 0.489746
vt 0.665527 0.286377
vt 0.685699 0.491455
vt 0.665527 0.491455
vt 0.670206 0.489130
vt 0.666992 0.487060
vt 0.672852 0.482910
vt 0.667969 0.323486
vt 0.673340 0.480713
vt 0.666992 0.483154
vt 0.684744 0.486894
vt 0.681152 0.489014
vt 0.678711 0.339600
vt 0.657227 0.499023
vt 0.657227 0.339600
vt 0.668988 0.486577
vt 0.666071 0.484482
vt 0.671875 0.479980
vt 0.664551 0.480713
vt 0.669922 0.262207
vt 0.683410 0.484518
vt 0.680275 0.486616
vt 0.671875 0.274902
vt 0.665527 0.272461
vt 0.665039 0.369019
vt 0.687902 0.251150
vt 0.686523 0.369019
vt 0.665039 0.497803
vt 0.658691 0.379517
vt 0.677246 0.379517
vt 0.670898 0.497803
vt 0.659180 0.261230
vt 0.665527 0.379639
vt 0.659180 0.378906
vt 0.665828 0.497450
vt 0.659180 0.496582
vt 0.686035 0.487305
vt 0.664551 0.369629
vt 0.671387 0.379517
vt 0.677734 0.261230
vt 0.677734 0.378906
vt 0.665039 0.487305
vt 0.686523 0.487305
vt 0.657227 0.487305
vt 0.678711 0.369629
vt 0.671387 0.497803
vt 0.677734 0.496582
vt 0.679199 0.277588
vt 0.657715 0.485840
vt 0.657715 0.277588
vt 0.670410 0.279541
vt 0.670410 0.260986
vt 0.673828 0.262207
vt 0.674805 0.265381
vt 0.674805 0.279541
vt 0.685059 0.262695
vt 0.657227 0.276123
vt 0.678711 0.487060
vt 0.658769 0.487060
vt 0.668457 0.279541
vt 0.668457 0.265381
vt 0.682617 0.305176
vt 0.659668 0.318115
vt 0.659668 0.305176
vt 0.677941 0.490967
vt 0.659668 0.287109
vt 0.682617 0.318115
vt 0.682617 0.287109
vt 0.679199 0.485840
vt 0.658691 0.277832
vt 0.658691 0.262695
vt 0.683594 0.323975
vt 0.677734 0.483398
vt 0.678223 0.322998
vt 0.659668 0.301758
vt 0.659668 0.259033
vt 0.682617 0.301758
vt 0.659668 0.298096
vt 0.682617 0.298096
vt 0.657227 0.369629
vt 0.678711 0.251953
vt 0.684570 0.272461
vt 0.686523 0.331055
vt 0.685059 0.483154
vt 0.686523 0.336670
vt 0.686035 0.497315
vt 0.671875 0.322998
vt 0.686035 0.272461
vt 0.658885 0.487305
vt 0.679199 0.494141
vt 0.680559 0.493652
vt 0.686523 0.286377
vt 0.673340 0.322754
vt 0.678711 0.499023
vt 0.667157 0.250771
vt 0.658691 0.497803
vt 0.677246 0.497803
vt 0.665527 0.261475
vt 0.664551 0.487305
vt 0.671387 0.261230
vt 0.678711 0.276123
vt 0.683594 0.486084
vt 0.657227 0.251953
vt 0.659668 0.315051
vt 0.682617 0.315051
vt 0.671721 0.279541
vt 0.674607 0.276027
vt 0.664551 0.341694
vt 0.686035 0.341694
vt 0.665527 0.341431
vt 0.686523 0.341431
vt 0.665527 0.497803
vt 0.668754 0.276027
vt 0.671541 0.279541
vt 0.674805 0.276188
vt 0.671721 0.279541
vt 0.657227 0.487060
vt 0.678711 0.490967
vt 0.657227 0.490967
vt 0.657715 0.489746
vt 0.679199 0.489746
vt 0.679199 0.493652
vt 0.657715 0.493652
vt 0.686523 0.491455
vt 0.670410 0.489014
vt 0.684570 0.487060
vt 0.669434 0.486328
vt 0.666016 0.484375
vt 0.677246 0.479980
vt 0.683106 0.484375
vt 0.679688 0.486328
vt 0.670898 0.262451
vt 0.677246 0.261230
vt 0.658691 0.261230
vt 0.657715 0.487305
vt 0.686035 0.251953
vt 0.665039 0.250732
vt 0.686523 0.250732
vt 0.668457 0.276188
vt 0.669571 0.323268
vt 0.673340 0.327515
vt 0.679673 0.327515
vt 0.683457 0.323268
vt 0.678711 0.494873
vt 0.668106 0.323683
vt 0.671875 0.327778
vt 0.674607 0.276027
vt 0.678208 0.327778
vt 0.681992 0.323683
vt 0.668675 0.279541
vt 0.668753 0.276033
vt 0.682617 0.315913
vt 0.669166 0.323491
vt 0.671875 0.327778
vt 0.669016 0.323518
vt 0.682617 0.315057
vt 0.682617 0.315913
vt 0.659670 0.318115
vt 0.189306 0.807986
vt 0.313873 0.930205
vt 0.342454 0.807986
vt 0.356282 0.807986
vt 0.356282 0.930205
vt 0.496901 0.930205
vt 0.496901 0.807986
vt 0.496901 0.931379
vt 0.356282 0.931379
vt 0.356282 0.806812
vt 0.496901 0.806812
vt 0.179258 0.807986
vt 0.054690 0.930205
vt 0.026110 0.807986
vt 0.496901 0.807986
vt 0.496901 0.930205
vt 0.356282 0.930205
vt 0.356282 0.807986
vt 0.179258 0.807986
vt 0.054690 0.930205
vt 0.026109 0.807986
vt 0.356282 0.806812
vt 0.496901 0.806812
vt 0.496901 0.931379
vt 0.356282 0.931379
vt 0.189306 0.807986
vt 0.313873 0.930205
vt 0.342454 0.807986
s 1
f 29/1/1 10/2/2 24/3/3
f 13/4/4 7/5/5 14/6/6
f 56/7/7 18/8/8 13/9/9
f 3/10/10 11/11/11 36/12/12
f 59/13/13 27/14/14 26/15/14
f 38/16/15 11/17/16 23/18/17
f 60/19/18 8/20/19 25/21/20
f 22/22/21 63/23/22 24/24/3
f 50/25/23 17/26/24 49/27/25
f 55/28/26 17/29/27 18/30/28
f 18/31/28 6/32/29 4/33/30
f 63/34/31 25/35/32 24/36/33
f 15/37/34 61/38/35 59/13/13
f 31/39/36 34/40/36 42/41/36
f 16/42/37 12/43/38 15/44/34
f 18/45/8 2/46/39 13/47/9
f 41/48/40 34/49/40 3/50/10
f 19/51/41 22/52/42 9/53/43
f 21/54/44 24/55/45 25/56/46
f 12/57/47 5/58/48 2/59/49
f 5/58/48 7/5/5 2/59/49
f 31/60/50 23/61/51 29/62/1
f 4/33/30 16/63/52 15/64/53
f 4/33/30 6/32/29 16/63/52
f 31/65/54 21/66/44 3/67/55
f 8/68/19 19/69/56 25/70/20
f 19/69/56 20/71/57 25/70/20
f 3/50/10 35/72/40 41/48/40
f 24/3/3 9/73/58 22/74/21
f 24/3/3 10/2/2 9/73/58
f 21/75/59 20/71/57 11/76/11
f 64/77/60 8/78/61 62/79/62
f 1/80/63 62/81/64 60/19/18
f 64/82/65 28/83/66 63/23/22
f 28/84/66 61/85/67 57/86/68
f 57/86/68 12/87/47 2/88/49
f 28/89/69 60/90/70 63/34/31
f 59/91/71 1/92/63 58/93/72
f 27/94/14 62/79/62 26/95/14
f 4/96/73 57/97/74 2/37/75
f 15/98/53 58/93/72 4/99/30
f 53/72/40 55/50/26 48/48/40
f 11/100/16 10/101/76 23/102/17
f 31/103/50 40/104/77 39/105/77
f 31/103/50 39/105/77 32/106/77
f 32/106/77 38/107/78 31/103/50
f 48/48/40 54/49/40 47/108/40
f 17/109/24 7/110/79 6/111/80
f 36/112/12 37/113/40 35/72/40
f 46/114/81 49/115/82 51/116/81
f 6/111/80 5/117/83 16/42/37
f 33/118/82 42/41/82 34/40/82
f 37/116/84 38/119/85 32/114/84
f 54/40/85 43/120/85 47/118/85
f 20/121/86 9/53/43 10/101/76
f 40/104/77 42/122/77 30/123/77
f 56/124/87 14/125/6 50/126/88
f 50/107/88 46/106/77 52/105/77
f 45/104/77 44/122/77 56/103/87
f 56/103/87 52/105/77 45/104/77
f 53/72/40 51/113/40 49/112/89
f 53/127/90 46/114/81 51/116/81
f 44/41/91 55/128/91 56/39/91
f 37/116/84 39/129/92 35/127/92
f 48/130/93 52/129/93 53/127/93
f 43/120/94 48/130/94 47/118/94
f 35/127/95 40/131/95 41/130/95
f 58/132/96 28/133/69 57/97/74
f 33/118/97 40/131/97 30/120/97
f 29/1/1 23/134/51 10/2/2
f 13/4/4 2/59/49 7/5/5
f 56/7/7 55/135/98 18/8/8
f 3/10/10 21/136/59 11/11/11
f 59/13/13 61/38/35 27/14/14
f 38/16/15 36/137/99 11/17/16
f 60/19/18 62/81/64 8/20/19
f 22/22/21 64/82/65 63/23/22
f 50/25/23 14/138/100 17/26/24
f 55/28/26 49/139/89 17/29/27
f 18/31/28 17/140/27 6/32/29
f 63/34/31 60/90/70 25/35/32
f 15/37/34 12/141/38 61/38/35
f 31/39/36 3/128/36 34/40/36
f 16/42/37 5/117/83 12/43/38
f 18/45/8 4/142/101 2/46/39
f 41/48/40 33/108/40 34/49/40
f 19/51/41 8/143/61 22/52/42
f 21/54/44 29/144/102 24/55/45
f 31/60/50 38/145/78 23/61/51
f 31/65/54 29/146/102 21/66/44
f 3/50/10 36/112/12 35/72/40
f 21/75/59 25/70/20 20/71/57
f 64/77/60 22/147/42 8/78/61
f 1/80/63 26/148/103 62/81/64
f 64/82/65 27/149/104 28/83/66
f 28/84/66 27/150/104 61/85/67
f 57/86/68 61/85/67 12/87/47
f 28/89/69 1/151/69 60/90/70
f 59/91/71 26/152/103 1/92/63
f 27/94/14 64/77/60 62/79/62
f 4/96/73 58/132/96 57/97/74
f 15/98/53 59/91/71 58/93/72
f 53/72/40 49/112/89 55/50/26
f 11/100/16 20/121/86 10/101/76
f 48/48/40 55/50/26 54/49/40
f 17/109/24 14/153/100 7/110/79
f 46/114/81 50/119/82 49/115/82
f 6/111/80 7/110/79 5/117/83
f 33/118/82 30/120/82 42/41/82
f 37/116/84 36/115/85 38/119/85
f 54/40/85 44/41/85 43/120/85
f 20/121/86 19/51/41 9/53/43
f 40/104/77 31/103/50 42/122/77
f 56/124/87 13/154/4 14/125/6
f 45/104/77 43/123/77 44/122/77
f 56/103/87 50/107/88 52/105/77
f 53/127/90 52/129/90 46/114/81
f 44/41/91 54/40/91 55/128/91
f 37/116/84 32/114/84 39/129/92
f 48/130/93 45/131/93 52/129/93
f 43/120/94 45/131/94 48/130/94
f 35/127/95 39/129/95 40/131/95
f 58/132/96 1/155/69 28/133/69
f 33/118/97 41/130/97 40/131/97
f 67/67/105 95/65/105 93/146/106 85/66/106
f 96/114/84 100/116/84 118/156/107 121/157/107
f 116/103/108 131/158/109 130/159/110 112/105/77
f 125/160/111 128/161/112 78/138/113 81/26/113
f 87/102/114 75/100/114 84/121/115 74/101/116
f 122/162/117 117/163/118 75/17/114 87/18/114
f 92/84/119 91/150/119 76/164/120 66/88/121
f 113/72/40 127/165/122 126/166/123 115/50/124
f 67/50/125 103/48/40 97/108/40 98/49/40
f 96/106/77 121/167/126 123/168/127 95/103/128
f 66/37/129 68/96/129 65/155/130 92/133/130
f 70/169/131 71/110/132 69/170/133 80/171/134
f 104/41/36 95/39/36 67/128/36 98/40/36
f 77/47/135 82/45/135 68/142/136 66/46/136
f 116/7/137 115/135/137 82/8/135 77/9/135
f 73/172/138 83/173/139 72/174/140 86/175/141
f 85/54/106 93/144/106 88/176/142 89/56/142
f 76/177/120 69/58/143 66/59/121
f 69/58/143 71/5/144 66/59/121
f 77/4/145 66/59/121 71/5/144
f 78/6/146 77/4/145 71/5/144
f 68/33/147 80/178/148 79/64/149
f 68/33/147 70/32/150 80/178/148
f 81/140/151 70/32/150 68/33/147
f 82/31/152 81/140/151 68/33/147
f 72/179/153 83/180/154 89/70/155
f 83/180/154 84/71/156 89/70/155
f 85/75/157 89/70/155 84/71/156
f 75/76/158 85/75/157 84/71/156
f 88/181/159 73/182/160 86/183/161
f 88/181/159 74/2/162 73/182/160
f 87/134/163 74/2/162 88/181/159
f 93/1/164 87/134/163 88/181/159
f 68/99/147 79/98/149 90/152/165 65/92/165
f 88/184/159 86/185/161 91/149/119 92/83/119
f 65/80/165 90/148/165 72/186/153 89/21/155
f 79/37/166 76/187/167 91/14/168 90/15/168
f 92/89/130 65/151/130 89/35/169 88/188/169
f 81/109/113 78/153/113 71/110/132 70/169/131
f 90/95/168 91/94/168 86/189/141 72/190/140
f 95/103/128 102/104/77 101/105/77
f 95/103/128 101/105/77 96/106/77
f 113/72/40 111/113/40 124/191/122 127/165/122
f 110/48/40 115/50/124 114/49/40 109/108/40
f 99/72/40 103/48/40 67/50/125
f 95/60/128 123/192/127 122/193/170 87/61/163 93/62/164
f 117/194/171 120/195/172 67/10/125 85/136/157 75/11/158
f 80/171/134 69/170/133 76/196/167 79/44/166
f 113/127/93 110/130/93 107/131/93 112/129/93
f 115/28/124 126/197/123 125/198/173 81/29/151 82/30/152
f 103/130/95 99/127/95 101/129/95 102/131/95
f 99/72/40 67/50/125 120/166/172 119/165/122
f 74/101/116 84/121/115 83/173/139 73/172/138
f 102/104/77 95/103/128 104/122/77 94/123/77
f 112/105/77 107/104/77 116/103/108
f 130/199/110 129/167/110 108/106/77 112/105/77
f 116/103/108 107/104/77 105/123/77 106/122/77
f 115/50/124 110/48/40 113/72/40
f 128/200/174 131/201/109 116/124/108 77/154/145 78/125/146
f 111/116/81 108/114/81 129/157/175 124/156/176
f 111/116/81 113/127/90 112/129/90 108/114/81
f 109/118/85 114/40/85 106/41/85 105/120/85
f 98/40/82 97/118/82 94/120/82 104/41/82
f 99/127/92 100/116/84 96/114/84 101/129/92
f 116/39/91 106/41/91 114/40/91 115/128/91
f 109/118/94 105/120/94 107/131/94 110/130/94
f 94/120/97 97/118/97 103/130/97 102/131/97
f 117/202/171 118/203/122 119/165/122 120/166/172
f 121/157/126 122/119/170 123/204/127
f 124/205/122 125/206/173 126/197/123 127/207/122
f 128/119/174 129/157/110 130/208/110 131/209/109
f 128/161/112 125/160/111 124/27/176 129/25/175
f 117/210/118 122/119/117 121/157/107 118/156/107
f 119/165/122 118/191/122 100/113/40 99/72/40
f 132/211/82 134/212/82 133/213/82
f 133/214/177 134/215/177 137/216/177 136/217/177
f 136/213/85 137/212/85 135/211/85
f 137/218/178 134/219/178 132/220/178 135/221/178
f 138/222/85 140/223/85 139/224/85
f 139/225/179 140/226/179 143/227/179 142/228/179
f 142/224/82 143/223/82 141/222/82
f 143/220/180 140/221/180 138/218/180 141/219/180
f 144/229/85 146/230/85 145/231/85
f 145/225/179 146/226/179 149/227/179 148/228/179
f 148/231/82 149/230/82 147/229/82
f 149/232/180 146/233/180 144/234/180 147/235/180
f 150/236/82 152/237/82 151/238/82
f 151/228/177 152/227/177 155/226/177 154/225/177
f 154/238/85 155/237/85 153/236/85
f 155/234/178 152/235/178 150/232/178 153/233/178
f 156/211/85 157/213/85 158/212/85
f 157/214/177 160/217/177 161/216/177 158/215/177
f 160/213/82 159/211/82 161/212/82
f 161/218/178 159/221/178 156/220/178 158/219/178
f 162/222/82 163/224/82 164/223/82
f 163/225/179 166/228/179 167/227/179 164/226/179
f 166/224/85 165/222/85 167/223/85
f 167/220/180 165/219/180 162/218/180 164/221/180
f 168/229/82 169/231/82 170/230/82
f 169/225/179 172/228/179 173/227/179 170/226/179
f 172/231/85 171/229/85 173/230/85
f 173/232/180 171/235/180 168/234/180 170/233/180
f 174/236/85 175/238/85 176/237/85
f 175/228/177 178/225/177 179/226/177 176/227/177
f 178/238/82 177/236/82 179/237/82
f 179/234/178 177/233/178 174/232/178 176/235/178
